<?xml version="1.0" encoding="utf-8"?>
<!-- Generator: Adobe Illustrator 15.0.2, SVG Export Plug-In . SVG Version: 6.00 Build 0)  -->
<!DOCTYPE svg PUBLIC "-//W3C//DTD SVG 1.1//EN" "http://www.w3.org/Graphics/SVG/1.1/DTD/svg11.dtd">
<svg version="1.1" id="Calque_1" xmlns="http://www.w3.org/2000/svg" xmlns:xlink="http://www.w3.org/1999/xlink" x="0px" y="0px"
	 width="100px" height="100px" viewBox="0 0 100 100" enable-background="new 0 0 100 100" xml:space="preserve">
<g>
	<path fill="#9C9C9C" d="M23.679,59.863H77.17c0.411,0,0.745-0.334,0.745-0.744V27.785c0-1.466-1.19-2.658-2.656-2.658H25.591
		c-1.465,0-2.657,1.192-2.657,2.658v31.333C22.934,59.529,23.268,59.863,23.679,59.863z M24.854,27.196h51.141v30.873H24.854V27.196
		z"/>
	<path fill="#9C9C9C" d="M86.064,71.605c-0.002-0.021-0.002-0.039-0.004-0.06c-0.02-0.241-0.104-0.485-0.244-0.722
		c-0.022-0.037-0.049-0.072-0.078-0.104l-8.037-9.139c-0.094-0.104-0.211-0.175-0.336-0.215c-0.04-0.085-0.123-0.146-0.225-0.146H68
		c-0.094,0-0.18,0.055-0.223,0.139s-0.032,0.186,0.021,0.261l0.25,0.335H32.446l0.25-0.335c0.056-0.075,0.065-0.177,0.023-0.261
		c-0.042-0.084-0.128-0.139-0.222-0.139h-8.86c-0.1,0-0.185,0.062-0.224,0.146c-0.125,0.04-0.243,0.107-0.336,0.215l-8.039,9.139
		c-0.029,0.03-0.054,0.065-0.077,0.104c-0.185,0.303-0.27,0.625-0.247,0.938l-0.002,1.868c0.028,0.996,1.765,2.318,3.046,2.318
		H83.02c0.92,0,1.91-0.616,2.483-1.228c0.386-0.41,0.575-0.811,0.562-1.188V71.605L86.064,71.605z M24.196,62.57
		c0.212-0.242,0.238-0.581,0.093-0.848h7.714l-0.25,0.334c-0.057,0.074-0.065,0.176-0.023,0.26c0.043,0.084,0.128,0.138,0.222,0.138
		h36.596c0.095,0,0.181-0.052,0.224-0.138c0.043-0.084,0.033-0.186-0.021-0.26l-0.25-0.334h7.992
		c-0.146,0.267-0.119,0.604,0.094,0.848l7.811,8.873c-0.043,0.05-0.066,0.115-0.062,0.184c0.012,0.113-0.023,0.214-0.109,0.307
		c-0.203,0.219-0.65,0.354-1.199,0.354l-27.797,0.001h-0.002c-0.063,0-0.127,0.024-0.175,0.071
		c-0.047,0.049-0.071,0.109-0.071,0.177c0,0.45-0.484,0.485-0.635,0.485h-7.848c-0.148,0-0.634-0.035-0.634-0.485
		c0-0.063-0.025-0.129-0.072-0.177c-0.047-0.047-0.109-0.071-0.175-0.071l0,0H17.758c-0.733,0-1.272-0.239-1.31-0.581
		c-0.009-0.083-0.06-0.146-0.127-0.188L24.196,62.57z M83.02,74.461H17.758c-0.522,0-1.373-0.633-1.557-0.943l0.002-1.246
		c0.301,0.318,0.849,0.513,1.555,0.513l27.637,0.001c0.111,0.447,0.525,0.732,1.101,0.732h7.846c0.575,0,0.99-0.285,1.102-0.732
		l27.576-0.001c0.697,0,1.25-0.181,1.557-0.505l0.001,1.229C84.415,73.812,83.564,74.461,83.02,74.461z"/>
	<polygon fill="#9C9C9C" points="69.467,64.389 30.979,64.389 28.06,68.264 72.441,68.264 	"/>
</g>
<path d="M59.604,41.077c0-0.716-0.578-1.294-1.293-1.294H44.626l3.66-3.657c0.504-0.504,0.504-1.322,0-1.826
	c-0.506-0.504-1.324-0.504-1.83,0l-5.863,5.862c-0.06,0.057-0.112,0.128-0.162,0.197c-0.018,0.028-0.03,0.064-0.049,0.09
	c-0.022,0.043-0.049,0.086-0.067,0.134c-0.017,0.036-0.024,0.075-0.037,0.114c-0.012,0.043-0.028,0.082-0.037,0.127
	c-0.014,0.063-0.019,0.134-0.021,0.198c-0.002,0.02-0.006,0.034-0.006,0.055c0,0.02,0.006,0.039,0.006,0.059
	c0.005,0.064,0.009,0.129,0.021,0.193c0.009,0.045,0.025,0.088,0.039,0.133c0.015,0.035,0.019,0.072,0.035,0.107
	c0.019,0.051,0.049,0.098,0.073,0.143c0.017,0.027,0.025,0.053,0.043,0.08c0.05,0.072,0.103,0.137,0.164,0.199l5.861,5.861
	c0.252,0.254,0.584,0.379,0.916,0.379c0.329,0,0.661-0.125,0.913-0.379c0.505-0.506,0.505-1.32,0-1.824l-3.659-3.658h13.685
	C59.025,42.37,59.604,41.79,59.604,41.077"/>
</svg>
