<?xml version="1.0" encoding="utf-8"?>
<!-- Generator: Adobe Illustrator 15.0.2, SVG Export Plug-In . SVG Version: 6.00 Build 0)  -->
<!DOCTYPE svg PUBLIC "-//W3C//DTD SVG 1.1//EN" "http://www.w3.org/Graphics/SVG/1.1/DTD/svg11.dtd">
<svg version="1.1" id="Layer_1" xmlns="http://www.w3.org/2000/svg" xmlns:xlink="http://www.w3.org/1999/xlink" x="0px" y="0px"
	 width="100px" height="100px" viewBox="0 0 100 100" enable-background="new 0 0 100 100" xml:space="preserve">
<g>
	<path d="M50.305,47.6c0.472,0,0.853-0.383,0.853-0.854v-3.795c0-0.469-0.381-0.852-0.853-0.852c-0.471,0-0.853,0.383-0.853,0.852
		v3.795C49.453,47.217,49.834,47.6,50.305,47.6z"/>
	<path d="M54.017,48.785c0.15,0.105,0.321,0.156,0.493,0.156c0.268,0,0.53-0.125,0.696-0.359l2.197-3.092
		c0.273-0.387,0.182-0.918-0.201-1.191c-0.384-0.271-0.916-0.18-1.189,0.203l-2.197,3.094
		C53.542,47.979,53.633,48.512,54.017,48.785z"/>
	<path d="M57.441,52.422l3.584-1.246c0.444-0.156,0.68-0.645,0.523-1.09c-0.154-0.441-0.642-0.678-1.085-0.521l-3.583,1.248
		c-0.446,0.156-0.681,0.643-0.526,1.086c0.124,0.352,0.453,0.572,0.806,0.572C57.254,52.471,57.348,52.455,57.441,52.422z"/>
	<path d="M61.16,56.27l-3.646-1.061c-0.451-0.127-0.924,0.131-1.057,0.584c-0.131,0.453,0.131,0.926,0.582,1.057l3.646,1.059
		c0.078,0.021,0.158,0.031,0.238,0.031c0.369,0,0.709-0.242,0.818-0.613C61.873,56.873,61.611,56.4,61.16,56.27z"/>
	<path d="M45.056,48.582c0.166,0.234,0.427,0.359,0.694,0.359c0.172,0,0.344-0.051,0.494-0.156c0.384-0.273,0.474-0.807,0.2-1.189
		l-2.197-3.094c-0.273-0.383-0.806-0.475-1.188-0.203c-0.385,0.273-0.475,0.805-0.202,1.191L45.056,48.582z"/>
	<path d="M43.378,50.812l-3.582-1.248c-0.445-0.156-0.931,0.08-1.086,0.521c-0.154,0.445,0.08,0.934,0.525,1.09l3.582,1.246
		c0.094,0.033,0.188,0.049,0.282,0.049c0.353,0,0.682-0.221,0.805-0.572C44.06,51.455,43.825,50.969,43.378,50.812z"/>
	<path d="M42.745,55.209L39.1,56.27c-0.453,0.131-0.714,0.604-0.581,1.057c0.107,0.371,0.449,0.613,0.817,0.613
		c0.079,0,0.159-0.01,0.238-0.031l3.646-1.059c0.452-0.131,0.713-0.605,0.581-1.057C43.669,55.34,43.198,55.082,42.745,55.209z"/>
</g>
</svg>
