<?xml version="1.0" encoding="utf-8"?>
<!-- Generator: Adobe Illustrator 15.0.2, SVG Export Plug-In . SVG Version: 6.00 Build 0)  -->
<!DOCTYPE svg PUBLIC "-//W3C//DTD SVG 1.1//EN" "http://www.w3.org/Graphics/SVG/1.1/DTD/svg11.dtd">
<svg version="1.1" id="Layer_1" xmlns="http://www.w3.org/2000/svg" xmlns:xlink="http://www.w3.org/1999/xlink" x="0px" y="0px"
	 width="100px" height="100px" viewBox="0 0 100 100" enable-background="new 0 0 100 100" xml:space="preserve">
<g>
	<path d="M50.723,34.543c-6.272,0-11.375,5.103-11.375,11.374v0.172c-0.001,3.164-0.002,5.256,3.256,10.785
		c0.367,0.623,0.373,0.634,0.67,1.092c0.282,0.434,0.868,1.336,2.387,3.73c0.265,0.419,0.821,0.545,1.239,0.277
		c0.419-0.265,0.543-0.82,0.278-1.238c-1.523-2.402-2.113-3.311-2.397-3.747c-0.279-0.431-0.279-0.431-0.63-1.024
		c-3.009-5.108-3.008-6.902-3.007-9.874v-0.173c0-5.282,4.297-9.58,9.579-9.58c5.283,0,9.58,4.297,9.58,9.58v0.173
		c0.002,2.972,0.002,4.766-3.008,9.874c-0.351,0.594-0.351,0.594-0.63,1.024c-0.283,0.437-0.873,1.345-2.397,3.747
		c-0.266,0.418-0.141,0.974,0.279,1.238c0.148,0.096,0.314,0.141,0.479,0.141c0.297,0,0.588-0.147,0.759-0.418
		c1.518-2.393,2.104-3.295,2.387-3.729c0.297-0.459,0.305-0.47,0.671-1.092c3.259-5.53,3.257-7.621,3.257-10.786v-0.171
		C62.098,39.646,56.995,34.543,50.723,34.543z"/>
	<path d="M55.373,63.076h-9.03c-0.496,0-0.897,0.4-0.897,0.897c0,0.495,0.402,0.897,0.897,0.897h9.03
		c0.496,0,0.898-0.402,0.898-0.897C56.271,63.477,55.869,63.076,55.373,63.076z"/>
	<path d="M54.789,65.652h-7.861c-0.496,0-0.898,0.402-0.898,0.898s0.402,0.898,0.898,0.898h7.861c0.496,0,0.898-0.402,0.898-0.898
		S55.285,65.652,54.789,65.652z"/>
	<path d="M53.944,68.231h-6.172c-0.497,0-0.898,0.401-0.898,0.897s0.401,0.897,0.898,0.897h6.172c0.497,0,0.897-0.401,0.897-0.897
		S54.441,68.231,53.944,68.231z"/>
	<path d="M50.882,72.555c1.131,0,2.095-0.703,2.485-1.697h-4.968C48.788,71.852,49.752,72.555,50.882,72.555z"/>
	<path d="M45.804,48.632c-0.103-0.129-0.292-0.15-0.42-0.048c-0.129,0.104-0.15,0.292-0.048,0.421
		c0.053,0.066,0.114,0.13,0.179,0.193l3.193,9.742c0.042,0.127,0.158,0.207,0.284,0.207c0.031,0,0.062-0.005,0.093-0.016
		c0.158-0.051,0.243-0.22,0.191-0.379l-2.95-9c0.717,0.349,1.612,0.51,2.343,0.277c0.159-0.051,0.302-0.117,0.431-0.199
		c0.357,0.234,0.794,0.373,1.258,0.373c0.548,0,1.066-0.175,1.459-0.489c0.219,0.117,0.474,0.214,0.757,0.286
		c0.837,0.211,1.577,0.161,2.194-0.141l-2.916,8.894c-0.051,0.158,0.035,0.328,0.19,0.379c0.032,0.011,0.063,0.015,0.095,0.015
		c0.125,0,0.242-0.08,0.284-0.206l3.198-9.757c0.026-0.032,0.057-0.058,0.084-0.091c0.101-0.13,0.078-0.319-0.052-0.421
		c-0.131-0.102-0.318-0.08-0.419,0.052c-0.58,0.738-1.424,0.973-2.512,0.698c-0.123-0.031-0.301-0.085-0.484-0.168
		c0.18-0.283,0.27-0.605,0.255-0.931c-0.026-0.651-0.249-1.128-0.606-1.31c-0.211-0.107-0.442-0.094-0.637,0.035
		c-0.315,0.211-0.468,0.688-0.42,1.311c0.029,0.378,0.194,0.714,0.476,0.989c-0.489,0.306-1.226,0.338-1.752,0.056
		c0.2-0.283,0.316-0.637,0.339-1.052c0.032-0.582-0.147-1.052-0.479-1.259c-0.212-0.131-0.467-0.138-0.683-0.015
		c-0.339,0.192-0.527,0.651-0.517,1.261c0.006,0.394,0.159,0.765,0.412,1.069c-0.043,0.02-0.089,0.037-0.137,0.052
		C47.591,49.743,46.287,49.24,45.804,48.632z M51.581,47.543c0.006-0.004,0.009-0.006,0.014-0.006s0.01,0.001,0.019,0.006
		c0.088,0.044,0.258,0.269,0.279,0.802c0.009,0.202-0.047,0.4-0.159,0.581c-0.166-0.159-0.289-0.361-0.309-0.617
		C51.39,47.848,51.498,47.598,51.581,47.543z M49.024,47.597c0.011-0.006,0.021-0.01,0.033-0.01c0.011,0,0.024,0.004,0.04,0.013
		c0.084,0.053,0.222,0.264,0.197,0.716c-0.016,0.285-0.086,0.521-0.209,0.707c-0.168-0.202-0.269-0.443-0.273-0.695
		C48.804,47.85,48.942,47.644,49.024,47.597z"/>
	<path d="M50.886,32.451c0.414,0,0.748-0.335,0.748-0.748v-3.331c0-0.413-0.334-0.748-0.748-0.748c-0.413,0-0.748,0.335-0.748,0.748
		v3.331C50.138,32.116,50.473,32.451,50.886,32.451z"/>
	<path d="M58.797,34.975c0.131,0.093,0.281,0.138,0.432,0.138c0.234,0,0.466-0.11,0.611-0.315l1.929-2.714
		c0.239-0.337,0.159-0.805-0.177-1.044c-0.337-0.24-0.805-0.16-1.044,0.176l-1.929,2.715C58.38,34.268,58.459,34.735,58.797,34.975z
		"/>
	<path d="M64.736,42.073l3.145-1.095c0.39-0.136,0.596-0.563,0.459-0.954c-0.135-0.39-0.562-0.595-0.952-0.459l-3.144,1.096
		c-0.393,0.136-0.598,0.563-0.462,0.953c0.108,0.309,0.397,0.502,0.707,0.502C64.571,42.116,64.654,42.102,64.736,42.073z"/>
	<path d="M68.129,50.332l-3.199-0.929c-0.396-0.114-0.812,0.114-0.928,0.511c-0.114,0.397,0.115,0.812,0.512,0.926l3.199,0.929
		c0.068,0.02,0.139,0.029,0.208,0.029c0.324,0,0.623-0.213,0.718-0.54C68.754,50.862,68.525,50.446,68.129,50.332z"/>
	<path d="M41.317,34.798c0.146,0.205,0.375,0.315,0.61,0.315c0.15,0,0.301-0.045,0.433-0.138c0.337-0.24,0.416-0.708,0.176-1.044
		l-1.929-2.715c-0.239-0.336-0.707-0.416-1.043-0.176c-0.337,0.239-0.416,0.707-0.177,1.044L41.317,34.798z"/>
	<path d="M36.913,40.661l-3.144-1.096c-0.391-0.136-0.817,0.07-0.953,0.459c-0.136,0.391,0.07,0.818,0.46,0.954l3.144,1.095
		c0.082,0.029,0.165,0.043,0.247,0.043c0.31,0,0.599-0.194,0.707-0.502C37.51,41.224,37.304,40.796,36.913,40.661z"/>
	<path d="M36.227,49.402l-3.198,0.929c-0.397,0.114-0.626,0.53-0.51,0.926c0.094,0.327,0.394,0.54,0.718,0.54
		c0.069,0,0.14-0.01,0.209-0.029l3.198-0.929c0.397-0.114,0.625-0.53,0.51-0.926C37.038,49.516,36.624,49.288,36.227,49.402z"/>
</g>
</svg>
