<?xml version="1.0" encoding="utf-8"?>
<!-- Generator: Adobe Illustrator 15.0.2, SVG Export Plug-In . SVG Version: 6.00 Build 0)  -->
<!DOCTYPE svg PUBLIC "-//W3C//DTD SVG 1.1//EN" "http://www.w3.org/Graphics/SVG/1.1/DTD/svg11.dtd">
<svg version="1.1" id="Layer_1" xmlns="http://www.w3.org/2000/svg" xmlns:xlink="http://www.w3.org/1999/xlink" x="0px" y="0px"
	 width="100px" height="100px" viewBox="0 0 100 100" enable-background="new 0 0 100 100" xml:space="preserve">
<g>
	<path d="M50.305,46.906c0.354,0,0.639-0.287,0.639-0.641V43.42c0-0.352-0.285-0.639-0.639-0.639c-0.353,0-0.639,0.287-0.639,0.639
		v2.846C49.666,46.619,49.952,46.906,50.305,46.906z"/>
	<path d="M54.414,48.218c0.113,0.079,0.241,0.117,0.37,0.117c0.2,0,0.397-0.094,0.522-0.27l1.648-2.318
		c0.205-0.29,0.136-0.688-0.151-0.894c-0.288-0.204-0.687-0.135-0.892,0.152l-1.648,2.32C54.059,47.613,54.127,48.013,54.414,48.218
		z"/>
	<path d="M57.819,52.059l2.688-0.935c0.333-0.117,0.51-0.483,0.393-0.817c-0.115-0.331-0.481-0.509-0.813-0.392l-2.688,0.937
		c-0.334,0.117-0.51,0.481-0.395,0.814c0.093,0.264,0.34,0.429,0.604,0.429C57.679,52.095,57.749,52.083,57.819,52.059z"/>
	<path d="M60.645,56.335l-2.734-0.796c-0.339-0.095-0.693,0.099-0.792,0.438s0.098,0.694,0.437,0.792l2.734,0.795
		c0.059,0.016,0.119,0.023,0.179,0.023c0.276,0,0.532-0.182,0.613-0.461C61.18,56.787,60.984,56.434,60.645,56.335z"/>
	<path d="M44.954,48.065c0.125,0.176,0.32,0.27,0.521,0.27c0.129,0,0.258-0.038,0.371-0.117c0.288-0.205,0.355-0.604,0.15-0.892
		l-1.648-2.32c-0.205-0.287-0.604-0.356-0.891-0.152c-0.289,0.205-0.356,0.604-0.152,0.894L44.954,48.065z"/>
	<path d="M42.86,50.852l-2.687-0.937c-0.334-0.117-0.698,0.061-0.814,0.392c-0.116,0.334,0.06,0.7,0.394,0.817l2.687,0.935
		c0.07,0.024,0.141,0.036,0.212,0.036c0.264,0,0.511-0.165,0.604-0.429C43.372,51.333,43.196,50.969,42.86,50.852z"/>
	<path d="M42.349,55.539l-2.733,0.796c-0.34,0.099-0.536,0.452-0.436,0.792c0.081,0.279,0.337,0.461,0.613,0.461
		c0.06,0,0.12-0.008,0.179-0.023l2.734-0.795c0.339-0.098,0.535-0.453,0.436-0.792C43.042,55.638,42.688,55.444,42.349,55.539z"/>
</g>
</svg>
