<?xml version="1.0" encoding="utf-8"?>
<!-- Generator: Adobe Illustrator 15.0.2, SVG Export Plug-In . SVG Version: 6.00 Build 0)  -->
<!DOCTYPE svg PUBLIC "-//W3C//DTD SVG 1.1//EN" "http://www.w3.org/Graphics/SVG/1.1/DTD/svg11.dtd">
<svg version="1.1" id="Layer_1" xmlns="http://www.w3.org/2000/svg" xmlns:xlink="http://www.w3.org/1999/xlink" x="0px" y="0px"
	 width="100px" height="100px" viewBox="0 0 100 100" enable-background="new 0 0 100 100" xml:space="preserve">
<g>
	<path d="M50.666,69.431c1.131,0,2.096-0.703,2.484-1.697h-4.967C48.572,68.728,49.536,69.431,50.666,69.431z"/>
	<g>
		<path d="M50.507,31.419c-6.272,0-11.375,5.104-11.375,11.375v0.172c-0.001,3.164-0.002,5.256,3.256,10.785
			c0.367,0.623,0.373,0.634,0.67,1.092c0.282,0.434,0.868,1.336,2.387,3.73c0.265,0.419,0.821,0.545,1.239,0.277
			c0.419-0.265,0.543-0.82,0.278-1.238c-1.523-2.402-2.113-3.311-2.397-3.747c-0.279-0.431-0.279-0.431-0.63-1.024
			c-3.009-5.107-3.008-6.902-3.007-9.873v-0.174c0-5.281,4.297-9.579,9.579-9.579s9.58,4.298,9.58,9.579v0.174
			c0.001,2.971,0.002,4.766-3.007,9.873c-0.352,0.594-0.352,0.594-0.631,1.024c-0.283,0.437-0.873,1.345-2.396,3.747
			c-0.266,0.418-0.143,0.974,0.277,1.238c0.15,0.096,0.316,0.141,0.48,0.141c0.297,0,0.588-0.147,0.759-0.418
			c1.519-2.393,2.104-3.295,2.386-3.729c0.299-0.459,0.305-0.47,0.672-1.092c3.258-5.53,3.258-7.621,3.256-10.786v-0.172
			C61.883,36.521,56.779,31.419,50.507,31.419z"/>
		<path d="M55.157,59.952h-9.03c-0.496,0-0.897,0.4-0.897,0.897c0,0.495,0.402,0.897,0.897,0.897h9.03
			c0.495,0,0.897-0.402,0.897-0.897C56.055,60.353,55.652,59.952,55.157,59.952z"/>
		<path d="M54.573,62.528h-7.861c-0.496,0-0.898,0.402-0.898,0.898s0.402,0.898,0.898,0.898h7.861c0.495,0,0.897-0.402,0.897-0.898
			S55.068,62.528,54.573,62.528z"/>
		<path d="M53.729,65.107h-6.172c-0.497,0-0.898,0.401-0.898,0.897s0.401,0.897,0.898,0.897h6.172c0.496,0,0.898-0.401,0.898-0.897
			S54.225,65.107,53.729,65.107z"/>
		<path d="M45.588,45.508c-0.103-0.129-0.292-0.149-0.42-0.048c-0.129,0.104-0.15,0.293-0.048,0.421
			c0.053,0.065,0.114,0.13,0.179,0.192l3.193,9.742c0.042,0.127,0.158,0.207,0.284,0.207c0.031,0,0.062-0.005,0.093-0.016
			c0.158-0.051,0.243-0.22,0.191-0.379l-2.95-9c0.717,0.35,1.612,0.51,2.343,0.277c0.159-0.051,0.302-0.117,0.431-0.199
			c0.357,0.234,0.794,0.373,1.258,0.373c0.548,0,1.066-0.176,1.459-0.489c0.219,0.117,0.474,0.214,0.757,0.286
			c0.838,0.211,1.578,0.16,2.194-0.142l-2.916,8.894c-0.052,0.158,0.034,0.328,0.19,0.379c0.031,0.011,0.062,0.015,0.095,0.015
			c0.126,0,0.243-0.08,0.284-0.206l3.198-9.758c0.026-0.031,0.057-0.058,0.083-0.091c0.102-0.13,0.079-0.319-0.051-0.421
			c-0.131-0.102-0.318-0.08-0.42,0.052c-0.578,0.738-1.424,0.974-2.512,0.698c-0.122-0.031-0.301-0.086-0.484-0.169
			c0.181-0.283,0.27-0.604,0.256-0.931c-0.026-0.651-0.248-1.129-0.606-1.311c-0.21-0.107-0.442-0.094-0.636,0.035
			c-0.316,0.211-0.469,0.688-0.421,1.311c0.029,0.378,0.194,0.714,0.476,0.989c-0.489,0.306-1.226,0.338-1.752,0.056
			c0.2-0.282,0.316-0.637,0.339-1.051c0.032-0.582-0.147-1.053-0.479-1.26c-0.212-0.131-0.467-0.138-0.683-0.015
			c-0.339,0.192-0.527,0.651-0.517,1.261c0.006,0.395,0.159,0.766,0.412,1.07c-0.043,0.02-0.089,0.036-0.137,0.052
			C47.375,46.619,46.071,46.116,45.588,45.508z M51.365,44.419c0.006-0.004,0.009-0.006,0.014-0.006c0.006,0,0.01,0.002,0.019,0.006
			c0.088,0.045,0.258,0.27,0.279,0.803c0.009,0.201-0.047,0.399-0.159,0.58c-0.166-0.158-0.289-0.361-0.309-0.616
			C51.174,44.724,51.283,44.474,51.365,44.419z M48.809,44.473c0.011-0.007,0.021-0.011,0.033-0.011c0.011,0,0.024,0.004,0.04,0.014
			c0.084,0.053,0.222,0.264,0.197,0.717c-0.016,0.284-0.086,0.52-0.209,0.707c-0.168-0.203-0.269-0.443-0.273-0.695
			C48.588,44.726,48.726,44.52,48.809,44.473z"/>
	</g>
</g>
</svg>
