<?xml version="1.0" encoding="utf-8"?>
<!-- Generator: Adobe Illustrator 15.0.2, SVG Export Plug-In . SVG Version: 6.00 Build 0)  -->
<!DOCTYPE svg PUBLIC "-//W3C//DTD SVG 1.1//EN" "http://www.w3.org/Graphics/SVG/1.1/DTD/svg11.dtd">
<svg version="1.1" id="Layer_1" xmlns="http://www.w3.org/2000/svg" xmlns:xlink="http://www.w3.org/1999/xlink" x="0px" y="0px"
	 width="100px" height="100px" viewBox="0 0 100 100" enable-background="new 0 0 100 100" xml:space="preserve">
<rect x="5.501" y="0.061" fill="none" width="90.166" height="100"/>
<path fill="#9D9D9D" d="M39.465,67.355l-7.869,3.017l-0.787-1.378l8.655-5.311v-3.018H22.81c-1.311,0-2.36-1.047-2.36-2.36
	c0-1.245,0.917-2.229,2.163-2.359V34.24c-1.245-0.065-2.163-1.115-2.163-2.296c0-1.312,1.05-2.36,2.36-2.36h17.115l0.984-2.558h0.59
	l0.982,2.558h17.378c1.312,0,2.36,1.048,2.36,2.36c0,1.313-1.049,2.361-2.36,2.361v21.641c1.312,0,2.36,1.047,2.36,2.359
	s-1.049,2.361-2.36,2.361H42.678v3.016l8.723,5.312l-0.786,1.378l-7.937-3.018v6.033c0,0.92-0.72,1.707-1.637,1.707
	c-0.984,0-1.575-0.787-1.575-1.707L39.465,67.355L39.465,67.355z M56.841,34.503H25.629v21.245H56.84L56.841,34.503L56.841,34.503z"
	/>
<path d="M68.91,38.736c0.713,0,1.293-0.578,1.293-1.293V23.759l3.658,3.66c0.504,0.504,1.318,0.504,1.824,0
	c0.254-0.252,0.379-0.584,0.379-0.914c0-0.332-0.125-0.664-0.379-0.916l-5.861-5.861c-0.062-0.061-0.127-0.114-0.199-0.164
	c-0.027-0.018-0.053-0.026-0.08-0.043c-0.045-0.024-0.092-0.055-0.143-0.073c-0.035-0.017-0.072-0.022-0.107-0.035
	c-0.045-0.015-0.088-0.031-0.133-0.039c-0.064-0.012-0.129-0.017-0.193-0.021c-0.02,0-0.039-0.006-0.059-0.006
	c-0.021,0-0.035,0.004-0.055,0.006c-0.065,0.002-0.134,0.006-0.198,0.021c-0.045,0.008-0.084,0.024-0.127,0.037
	c-0.039,0.012-0.078,0.021-0.115,0.037c-0.047,0.018-0.09,0.045-0.133,0.067c-0.027,0.019-0.061,0.031-0.09,0.049
	c-0.07,0.05-0.139,0.103-0.197,0.162l-5.863,5.863c-0.504,0.506-0.504,1.324,0,1.83c0.504,0.504,1.322,0.504,1.826,0l3.658-3.66
	v13.685C67.616,38.158,68.194,38.736,68.91,38.736"/>
</svg>
