<?xml version="1.0" encoding="utf-8"?>
<!-- Generator: Adobe Illustrator 15.0.2, SVG Export Plug-In . SVG Version: 6.00 Build 0)  -->
<!DOCTYPE svg PUBLIC "-//W3C//DTD SVG 1.1//EN" "http://www.w3.org/Graphics/SVG/1.1/DTD/svg11.dtd">
<svg version="1.1" id="Layer_1" xmlns="http://www.w3.org/2000/svg" xmlns:xlink="http://www.w3.org/1999/xlink" x="0px" y="0px"
	 width="100px" height="100px" viewBox="0 0 100 100" enable-background="new 0 0 100 100" xml:space="preserve">
<g>
	<path d="M50.305,46.258c0.236,0,0.426-0.191,0.426-0.427v-1.897c0-0.234-0.19-0.426-0.426-0.426c-0.235,0-0.426,0.191-0.426,0.426
		v1.897C49.879,46.066,50.07,46.258,50.305,46.258z"/>
	<path d="M54.812,47.696c0.075,0.053,0.16,0.078,0.246,0.078c0.135,0,0.266-0.062,0.349-0.18l1.099-1.546
		c0.137-0.193,0.091-0.459-0.101-0.596c-0.192-0.136-0.458-0.09-0.595,0.102l-1.099,1.547C54.575,47.293,54.621,47.56,54.812,47.696
		z"/>
	<path d="M58.197,51.74l1.791-0.623c0.223-0.078,0.34-0.322,0.262-0.545c-0.076-0.221-0.32-0.339-0.542-0.261l-1.792,0.624
		c-0.223,0.078-0.34,0.321-0.263,0.543c0.062,0.176,0.227,0.286,0.403,0.286C58.104,51.765,58.15,51.757,58.197,51.74z"/>
	<path d="M60.13,56.446l-1.823-0.53c-0.226-0.063-0.462,0.065-0.527,0.292c-0.066,0.227,0.064,0.463,0.291,0.528l1.822,0.529
		c0.039,0.011,0.08,0.016,0.119,0.016c0.185,0,0.355-0.121,0.409-0.307C60.486,56.748,60.355,56.512,60.13,56.446z"/>
	<path d="M44.853,47.595c0.083,0.117,0.213,0.18,0.347,0.18c0.086,0,0.172-0.025,0.247-0.078c0.192-0.137,0.237-0.403,0.1-0.595
		l-1.099-1.547c-0.137-0.191-0.403-0.237-0.594-0.102c-0.192,0.137-0.237,0.402-0.101,0.596L44.853,47.595z"/>
	<path d="M42.343,50.936l-1.791-0.624c-0.223-0.078-0.465,0.04-0.543,0.261c-0.077,0.223,0.04,0.467,0.263,0.545l1.791,0.623
		c0.047,0.017,0.094,0.024,0.141,0.024c0.176,0,0.341-0.11,0.402-0.286C42.684,51.257,42.566,51.014,42.343,50.936z"/>
	<path d="M41.952,55.916l-1.822,0.53c-0.227,0.065-0.357,0.302-0.291,0.528c0.054,0.186,0.225,0.307,0.409,0.307
		c0.04,0,0.08-0.005,0.119-0.016l1.823-0.529c0.226-0.065,0.356-0.303,0.291-0.528C42.415,55.981,42.179,55.853,41.952,55.916z"/>
</g>
</svg>
