<?xml version="1.0" encoding="utf-8"?>
<!-- Generator: Adobe Illustrator 15.0.2, SVG Export Plug-In . SVG Version: 6.00 Build 0)  -->
<!DOCTYPE svg PUBLIC "-//W3C//DTD SVG 1.1//EN" "http://www.w3.org/Graphics/SVG/1.1/DTD/svg11.dtd">
<svg version="1.1" id="Layer_1" xmlns="http://www.w3.org/2000/svg" xmlns:xlink="http://www.w3.org/1999/xlink" x="0px" y="0px"
	 width="100px" height="100px" viewBox="0 0 100 100" enable-background="new 0 0 100 100" xml:space="preserve">
<path d="M71.516,48.234c0,3.436,2.783,6.219,6.219,6.219c3.437,0,6.22-2.783,6.22-6.219s-2.783-6.219-6.22-6.219
	C74.299,42.015,71.516,44.799,71.516,48.234z M7.462,29.578C3.342,29.578,0,32.92,0,37.041v22.387c0,3.701,2.689,6.764,6.219,7.354
	v0.108C6.219,68.607,7.61,70,9.328,70h3.109c1.718,0,3.109-1.393,3.109-3.109h68.406c0,1.719,1.392,3.109,3.108,3.109h3.109
	c1.719,0,3.109-1.393,3.109-3.109v-0.108c3.529-0.591,6.219-3.652,6.219-7.354V37.041c0-4.12-3.344-7.462-7.462-7.462L7.462,29.578
	L7.462,29.578z M7.773,35.797c0.855,0,1.555,0.7,1.555,1.555v21.766c0,0.854-0.7,1.555-1.555,1.555s-1.555-0.698-1.555-1.555V37.352
	C6.219,36.497,6.918,35.797,7.773,35.797z M13.992,35.797c0.855,0,1.555,0.7,1.555,1.555v21.766c0,0.854-0.7,1.555-1.555,1.555
	s-1.555-0.698-1.555-1.555V37.352C12.438,36.497,13.137,35.797,13.992,35.797z M20.211,35.797c0.855,0,1.555,0.7,1.555,1.555v21.766
	c0,0.854-0.7,1.555-1.555,1.555s-1.555-0.698-1.555-1.555V37.352C18.656,36.497,19.356,35.797,20.211,35.797z M65.297,48.234
	c0-6.872,5.566-12.438,12.438-12.438c6.873,0,12.438,5.566,12.438,12.438c0,6.872-5.565,12.438-12.438,12.438
	C70.863,60.672,65.297,55.105,65.297,48.234z"/>
</svg>
