<svg xmlns="http://www.w3.org/2000/svg" xmlns:xlink="http://www.w3.org/1999/xlink" version="1.1" id="Your_Icon" x="0px" y="0px" width="100px" height="100px" viewBox="0 0 100 100" enable-background="new 0 0 100 100" xml:space="preserve">
<path d="M84.239,27.652c-3.806-1.793-5.755,2.174-5.755,2.174l-9.519,15.596l-1.914-1.105l6.834-25.277c0,0,0.902-4.199-3.048-5.014  c-4.391-0.961-5.691,2.559-5.691,2.559l-6.422,24.637l-2.139-0.59l3.125-29.52c0,0,0.266-4.6-4.15-4.965  c-4.419-0.369-4.966,4.152-4.966,4.152l-2.999,29.523h-1.914l-2.23-27.365c0,0-1.011-4.457-4.873-4.457  c-3.858,0-4.05,5.234-4.05,5.234l0.982,33.662l-0.982,1.078l-7.317-5.758c0,0-3.438-2.74-6.189,0.061  c-2.485,2.529,0.345,6.387,0.345,6.387L35.809,70.99l31.936,1.908L86.25,32.91C86.25,32.91,87.702,29.361,84.239,27.652"/>
<polygon points="29.534,83.67 29.534,89 69.885,89 69.885,77.215 32.973,74.854 "/>
</svg>