<?xml version="1.0" encoding="utf-8"?>
<!-- Generator: Adobe Illustrator 15.0.2, SVG Export Plug-In . SVG Version: 6.00 Build 0)  -->
<!DOCTYPE svg PUBLIC "-//W3C//DTD SVG 1.1//EN" "http://www.w3.org/Graphics/SVG/1.1/DTD/svg11.dtd">
<svg version="1.1" id="Layer_1" xmlns="http://www.w3.org/2000/svg" xmlns:xlink="http://www.w3.org/1999/xlink" x="0px" y="0px"
	 width="100px" height="100px" viewBox="0 0 100 100" enable-background="new 0 0 100 100" xml:space="preserve">
<path d="M65.752,26.281c-3.905-3.904-9.099-6.055-14.621-6.055c-5.524,0-10.717,2.151-14.622,6.055
	c-3.905,3.906-6.056,9.099-6.055,14.622c0,5.522,2.151,10.714,6.057,14.619l4.82,4.821v12.711c0,2.608,1.939,3.796,3.743,3.796
	c0.045,0,0.083-0.001,0.101-0.003h11.676l0.075,0.002c0.409,0,1.213-0.071,2.01-0.546c0.655-0.392,1.758-1.344,1.758-3.317V60.581
	l5.057-5.059C73.812,47.461,73.812,34.343,65.752,26.281z M39.367,52.666c-3.144-3.143-4.874-7.319-4.875-11.764
	c0-4.444,1.73-8.622,4.873-11.765c3.142-3.141,7.32-4.872,11.765-4.872s8.622,1.73,11.766,4.872
	c6.485,6.487,6.484,17.042-0.002,23.529l-6.241,6.242v13.068c0,0.696-0.471,0.814-0.725,0.832l-9.79-0.01L46.103,72.8
	c-0.006,0.001-0.024,0.002-0.051,0.002c-0.451,0-0.682-0.255-0.682-0.757V58.672L39.367,52.666z"/>
<path d="M54.186,61.411h-6.478c-0.743,0-1.345-0.602-1.345-1.344c0-0.743,0.602-1.345,1.345-1.345h6.478
	c0.742,0,1.345,0.602,1.345,1.345C55.53,60.81,54.928,61.411,54.186,61.411L54.186,61.411z"/>
<path d="M54.186,66.293h-6.478c-0.743,0-1.345-0.603-1.345-1.344c0-0.743,0.602-1.345,1.345-1.345h6.478
	c0.742,0,1.345,0.602,1.345,1.345C55.53,65.69,54.928,66.293,54.186,66.293L54.186,66.293z"/>
<path d="M54.186,71.172h-6.478c-0.743,0-1.345-0.602-1.345-1.345c0-0.741,0.602-1.343,1.345-1.343h6.478
	c0.742,0,1.345,0.602,1.345,1.343C55.53,70.57,54.928,71.172,54.186,71.172L54.186,71.172z"/>
<path d="M26.896,30.017c-0.285,0-0.574-0.073-0.838-0.226l-5.611-3.239c-0.804-0.464-1.078-1.491-0.615-2.295
	c0.464-0.804,1.492-1.079,2.295-0.615l5.61,3.24c0.804,0.464,1.079,1.491,0.615,2.295C28.042,29.715,27.477,30.017,26.896,30.017
	L26.896,30.017z"/>
<path d="M26.653,41.346h-6.479c-0.928,0-1.68-0.752-1.68-1.68s0.752-1.68,1.68-1.68h6.478c0.927,0,1.68,0.752,1.68,1.68
	C28.333,40.594,27.581,41.346,26.653,41.346L26.653,41.346z"/>
<path d="M82.061,41.113h-6.479c-0.928,0-1.679-0.753-1.679-1.681s0.751-1.68,1.679-1.68h6.479c0.929,0,1.68,0.752,1.68,1.68
	S82.989,41.113,82.061,41.113L82.061,41.113z"/>
<path d="M21.29,55.797c-0.581,0-1.146-0.301-1.457-0.84c-0.463-0.803-0.189-1.831,0.615-2.295l5.611-3.239
	c0.804-0.465,1.831-0.188,2.294,0.615c0.464,0.804,0.189,1.831-0.615,2.295l-5.61,3.239C21.863,55.725,21.575,55.797,21.29,55.797
	L21.29,55.797z"/>
<path d="M75.495,30.077c-0.58,0-1.146-0.301-1.457-0.841c-0.464-0.803-0.188-1.83,0.614-2.294l5.61-3.24
	c0.805-0.463,1.831-0.188,2.296,0.616c0.464,0.803,0.188,1.831-0.615,2.294l-5.61,3.24C76.068,30.004,75.78,30.077,75.495,30.077
	L75.495,30.077z"/>
<path d="M81.104,55.857c-0.285,0-0.575-0.073-0.84-0.227l-5.61-3.238c-0.803-0.465-1.077-1.492-0.614-2.295
	c0.464-0.804,1.492-1.08,2.296-0.615l5.609,3.24c0.805,0.464,1.079,1.49,0.615,2.294C82.248,55.556,81.684,55.857,81.104,55.857
	L81.104,55.857z"/>
</svg>
