<?xml version="1.0" encoding="utf-8"?>
<!-- Generator: Adobe Illustrator 15.0.2, SVG Export Plug-In . SVG Version: 6.00 Build 0)  -->
<!DOCTYPE svg PUBLIC "-//W3C//DTD SVG 1.1//EN" "http://www.w3.org/Graphics/SVG/1.1/DTD/svg11.dtd">
<svg version="1.1" id="Layer_1" xmlns="http://www.w3.org/2000/svg" xmlns:xlink="http://www.w3.org/1999/xlink" x="0px" y="0px"
	 width="100px" height="100px" viewBox="-11.364 0 100 100" enable-background="new -11.364 0 100 100" xml:space="preserve">
<rect x="6.304" y="17.5" fill="none" width="66.832" height="74.122"/>
<path d="M37.015,63.715l-8.019,3.073l-0.802-1.403l8.821-5.414v-3.074H20.041c-1.336,0-2.406-1.068-2.406-2.406
	c0-1.27,0.935-2.271,2.205-2.404V29.963c-1.269-0.066-2.205-1.136-2.205-2.34c0-1.336,1.07-2.405,2.406-2.405h17.442l1.003-2.607
	h0.602l1,2.607H57.8c1.338,0,2.406,1.068,2.406,2.405c0,1.338-1.068,2.406-2.406,2.406v22.055c1.338,0,2.406,1.068,2.406,2.405
	c0,1.338-1.068,2.406-2.406,2.406H40.29v3.074l8.889,5.414l-0.8,1.403l-8.089-3.074v6.147c0,0.938-0.733,1.74-1.669,1.74
	c-1.002,0-1.604-0.803-1.604-1.74v-6.146H37.015z M54.724,30.231h-31.81v21.652h31.809L54.724,30.231L54.724,30.231z"/>
</svg>
