<?xml version="1.0" encoding="utf-8"?>
<!-- Generator: Adobe Illustrator 15.0.2, SVG Export Plug-In . SVG Version: 6.00 Build 0)  -->
<!DOCTYPE svg PUBLIC "-//W3C//DTD SVG 1.1//EN" "http://www.w3.org/Graphics/SVG/1.1/DTD/svg11.dtd">
<svg version="1.1" id="Layer_1" xmlns="http://www.w3.org/2000/svg" xmlns:xlink="http://www.w3.org/1999/xlink" x="0px" y="0px"
	 width="77.273px" height="100px" viewBox="0 0 77.273 100" enable-background="new 0 0 77.273 100" xml:space="preserve">
<g>
	<rect x="6.304" y="17.5" fill="none" width="66.832" height="74.122"/>
	<path d="M38.335,48.85l-5.832,2.236l-0.583-1.021l6.415-3.937v-2.236H25.99c-0.972,0-1.75-0.777-1.75-1.75
		c0-0.923,0.68-1.652,1.604-1.749V24.304c-0.923-0.048-1.604-0.826-1.604-1.702c0-0.972,0.778-1.749,1.75-1.749h12.686l0.729-1.896
		h0.438l0.727,1.896h12.881c0.973,0,1.75,0.777,1.75,1.749c0,0.973-0.777,1.75-1.75,1.75v16.04c0.973,0,1.75,0.777,1.75,1.749
		c0,0.973-0.777,1.75-1.75,1.75H40.717v2.236l6.464,3.937l-0.582,1.021l-5.882-2.236v4.472c0,0.681-0.534,1.265-1.214,1.265
		c-0.729,0-1.167-0.584-1.167-1.265V48.85L38.335,48.85z M51.215,24.499H28.08v15.747h23.134V24.499z"/>
</g>
</svg>
