<?xml version="1.0" encoding="utf-8"?>
<!-- Generator: Adobe Illustrator 15.0.2, SVG Export Plug-In . SVG Version: 6.00 Build 0)  -->
<!DOCTYPE svg PUBLIC "-//W3C//DTD SVG 1.1//EN" "http://www.w3.org/Graphics/SVG/1.1/DTD/svg11.dtd">
<svg version="1.1" id="Layer_1" xmlns="http://www.w3.org/2000/svg" xmlns:xlink="http://www.w3.org/1999/xlink" x="0px" y="0px"
	 width="100px" height="100px" viewBox="0 0 100 100" enable-background="new 0 0 100 100" xml:space="preserve">
<g>
	<path d="M65.545,54.269c-0.76,0-1.372,0.613-1.372,1.373c0,0.21,0.052,0.407,0.137,0.587l-0.014,0.006
		c0.852,1.812,1.334,3.828,1.334,5.96c0,2.133-0.482,4.149-1.334,5.962l0.014,0.006c-0.085,0.179-0.137,0.378-0.137,0.589
		c0,0.757,0.614,1.37,1.373,1.37c0.597,0,1.1-0.384,1.287-0.915c0.984-2.136,1.542-4.508,1.542-7.01s-0.558-4.874-1.542-7.008
		C66.644,54.652,66.142,54.269,65.545,54.269z"/>
	<path d="M72.573,51.661c-0.758,0-1.37,0.615-1.37,1.372c0,0.21,0.049,0.405,0.132,0.583l-0.009,0.002
		c1.251,2.603,1.965,5.509,1.992,8.576c-0.027,3.068-0.741,5.975-1.992,8.577l0.009,0.003c-0.083,0.176-0.132,0.373-0.132,0.581
		c0,0.758,0.613,1.371,1.37,1.371c0.577,0,1.071-0.358,1.273-0.865c1.395-2.938,2.189-6.212,2.216-9.667
		c-0.026-3.456-0.821-6.729-2.216-9.666C73.645,52.021,73.15,51.661,72.573,51.661z"/>
	<path d="M81.033,49.885c-0.017-0.04-0.034-0.077-0.054-0.114l0,0c-0.225-0.452-0.685-0.766-1.224-0.766
		c-0.759,0-1.371,0.614-1.371,1.373c0,0.198,0.045,0.388,0.12,0.558l-0.007,0.004c1.61,3.418,2.515,7.233,2.515,11.256
		c0,4.025-0.905,7.838-2.515,11.258l0.007,0.003c-0.075,0.172-0.12,0.359-0.12,0.56c0,0.758,0.613,1.371,1.371,1.371
		c0.539,0,0.999-0.313,1.224-0.767l0,0c0.02-0.038,0.037-0.074,0.054-0.114c1.744-3.744,2.723-7.914,2.723-12.31
		C83.757,57.8,82.777,53.63,81.033,49.885z"/>
	<path d="M61.271,54.976l-3.905-9.832c0,0-0.402-4.073-0.771-5.632c-1.624-7.015-9.445-13.379-17.926-13.379
		c-10.316,0-18.683,8.367-18.683,18.693c0,5.963,2.792,11.276,7.142,14.698v15.861h19.941v-5.721h2.928
		c4.067,0,7.367-3.3,7.367-7.373v-5.223h2.507c0.832,0,1.511-0.677,1.511-1.506C61.385,55.353,61.347,55.153,61.271,54.976z
		 M50.865,49.332c-1.41,0-2.555-1.143-2.555-2.555s1.145-2.555,2.555-2.555c1.412,0,2.555,1.144,2.555,2.555
		S52.278,49.332,50.865,49.332z"/>
</g>
</svg>
