<?xml version="1.0" encoding="utf-8"?>
<!-- Generator: Adobe Illustrator 16.0.0, SVG Export Plug-In . SVG Version: 6.00 Build 0)  -->
<!DOCTYPE svg PUBLIC "-//W3C//DTD SVG 1.1//EN" "http://www.w3.org/Graphics/SVG/1.1/DTD/svg11.dtd">
<svg version="1.1" id="Layer_1" xmlns="http://www.w3.org/2000/svg" xmlns:xlink="http://www.w3.org/1999/xlink" x="0px" y="0px"
	 width="1280px" height="720px" viewBox="0 0 1280 720" enable-background="new 0 0 1280 720" xml:space="preserve">
<path fill="#F1F1F1" d="M803.635,256.997H541.606c-2.883-33.447-30.929-59.7-65.123-59.7c-36.111,0-65.385,29.273-65.385,65.385
	c0,35.826,28.818,64.906,64.536,65.363v95.179l-10.715,59.703l59.911-21.6h278.804V256.997z"/>
<circle fill="#99CC00" cx="475.375" cy="261.803" r="37.912"/>
<g>
	<path d="M429.612,261.106c0.179,2.291,1.475,12.703,10.335,17.559c-0.091-0.223-0.141-0.471-0.141-0.733v-8.919
		c0-1.184,0.922-2.355,2.099-2.669l75.679-20.278c0.074-0.019,0.146-0.022,0.218-0.034l-11.616-4.123l-76.093,18.615l9.161,5.693
		l-0.396,0.637L429.612,261.106z"/>
	<path d="M440.558,269.013v8.919c0,0.31,0.094,0.567,0.274,0.751c0.248,0.252,0.641,0.333,1.073,0.219l75.679-20.278
		c0.836-0.224,1.542-1.114,1.542-1.944v-8.919c0-0.622-0.382-1.022-0.972-1.022c-0.121,0-0.247,0.018-0.375,0.052l-75.68,20.279
		C441.264,267.292,440.558,268.182,440.558,269.013z M498.09,257.957c0-1.681,1.363-3.411,3.046-3.862
		c1.684-0.451,3.047,0.547,3.047,2.23c0,1.681-1.363,3.41-3.047,3.861C499.453,260.638,498.09,259.638,498.09,257.957z
		 M481.365,262.438c0-1.681,1.363-3.411,3.045-3.861c1.682-0.452,3.046,0.547,3.046,2.229c0,1.683-1.364,3.411-3.046,3.862
		C482.729,265.118,481.365,264.12,481.365,262.438z M472.228,264.887c0-1.681,1.362-3.411,3.046-3.86
		c1.682-0.453,3.045,0.547,3.045,2.229c0,1.681-1.363,3.41-3.045,3.861C473.591,267.567,472.229,266.569,472.228,264.887z"/>
</g>
<g>
	<polygon points="472.959,271.358 464.922,275.456 468.047,277.94 477.375,271.374 477.375,270.175 	"/>
</g>
<g>
	<polygon points="474.511,273.774 468.324,278.128 480.697,274.812 493.07,271.497 486.885,270.458 483.743,269.93 483.743,269.638 
		493.07,271.31 487.579,269.14 483.743,268.983 483.743,268.469 477.652,270.1 477.652,271.562 	"/>
</g>
<rect x="526.177" y="308.923" fill="#33B5E5" width="253.053" height="72.083"/>
<path d="M579.954,337.218c-2.494-1.171-3.771,1.42-3.771,1.42l-6.239,10.187l-1.254-0.722l4.479-16.511c0,0,0.591-2.744-1.998-3.275
	c-2.877-0.628-3.729,1.671-3.729,1.671l-4.208,16.093l-1.402-0.385l2.048-19.283c0,0,0.175-3.004-2.719-3.243
	c-2.897-0.241-3.255,2.711-3.255,2.711l-1.965,19.285h-1.254l-1.461-17.875c0,0-0.663-2.912-3.194-2.912
	c-2.528,0-2.655,3.419-2.655,3.419l0.644,21.988l-0.644,0.705l-4.795-3.761c0,0-2.253-1.79-4.057,0.04
	c-1.628,1.652,0.227,4.172,0.227,4.172l9.465,14.584l20.931,1.245l12.127-26.12C581.272,340.652,582.224,338.334,579.954,337.218"/>
<g>
	<text transform="matrix(1 0 0 1 610.2544 292.4414)" fill="#989898" font-family="'Roboto-Bold'" font-size="24">KINECT</text>
</g>
<g>
	<path d="M585.389,415.689c-0.748,0-1.354,0.604-1.354,1.353c0,0.208,0.05,0.402,0.135,0.579l-0.013,0.006
		c0.84,1.787,1.315,3.776,1.315,5.878s-0.476,4.092-1.315,5.879l0.013,0.006c-0.084,0.177-0.135,0.372-0.135,0.58
		c0,0.747,0.605,1.353,1.354,1.353c0.588,0,1.084-0.379,1.27-0.903c0.97-2.106,1.519-4.445,1.519-6.913s-0.549-4.807-1.519-6.912
		C586.473,416.067,585.977,415.689,585.389,415.689z"/>
	<path d="M592.319,413.118c-0.747,0-1.352,0.606-1.352,1.353c0,0.207,0.049,0.398,0.131,0.575l-0.007,0.003
		c1.232,2.565,1.937,5.432,1.963,8.457c-0.026,3.026-0.73,5.893-1.963,8.459l0.007,0.002c-0.082,0.175-0.131,0.368-0.131,0.573
		c0,0.748,0.604,1.354,1.352,1.354c0.57,0,1.057-0.354,1.255-0.854c1.376-2.896,2.16-6.125,2.187-9.532
		c-0.026-3.408-0.811-6.637-2.187-9.533C593.376,413.473,592.89,413.118,592.319,413.118z"/>
	<path d="M600.662,411.366c-0.015-0.039-0.033-0.076-0.051-0.113l0,0c-0.222-0.446-0.677-0.756-1.208-0.756
		c-0.748,0-1.353,0.605-1.353,1.354c0,0.196,0.044,0.382,0.119,0.551l-0.006,0.003c1.587,3.372,2.479,7.134,2.479,11.101
		c0,3.969-0.892,7.73-2.479,11.103l0.006,0.003c-0.075,0.169-0.119,0.354-0.119,0.551c0,0.747,0.604,1.353,1.353,1.353
		c0.531,0,0.986-0.31,1.208-0.755l0,0c0.018-0.038,0.036-0.075,0.051-0.114c1.721-3.692,2.686-7.804,2.686-12.139
		C603.349,419.171,602.382,415.059,600.662,411.366z"/>
	<path d="M581.174,416.387l-3.851-9.696c0,0-0.397-4.018-0.76-5.555c-1.603-6.918-9.315-13.195-17.678-13.195
		c-10.174,0-18.424,8.253-18.424,18.435c0,5.881,2.754,11.122,7.043,14.496v15.642h19.666v-5.642h2.888
		c4.012,0,7.266-3.254,7.266-7.27v-5.151h2.471c0.82,0,1.491-0.668,1.491-1.486C581.286,416.759,581.248,416.561,581.174,416.387z
		 M570.912,410.82c-1.392,0-2.52-1.128-2.52-2.52s1.128-2.521,2.52-2.521s2.52,1.129,2.52,2.521
		C573.433,409.692,572.305,410.82,570.912,410.82z"/>
</g>
<g>
	<text transform="matrix(1 0 0 1 623.0576 354.3564)" fill="#222222" font-family="'Roboto-Regular'" font-size="18">Make a gesture...</text>
</g>
<g>
	<text transform="matrix(1 0 0 1 623.0571 427.3203)" fill="#222222" font-family="'Roboto-Regular'" font-size="18">Say something...</text>
</g>
<rect x="475.385" y="329.263" fill="#AA66CC" width="12" height="93.243"/>
</svg>
