<svg xmlns="http://www.w3.org/2000/svg" xmlns:xlink="http://www.w3.org/1999/xlink" version="1.1" id="Layer_1" x="0px" y="0px" width="100px" height="100px" viewBox="0 0 100 100" enable-background="new 0 0 100 100" xml:space="preserve">
<path d="M72.25,16.551c-5.971-5.969-13.91-9.257-22.354-9.257c-8.445,0-16.384,3.288-22.354,9.258  c-5.971,5.971-9.259,13.91-9.258,22.354c0,8.443,3.289,16.38,9.26,22.351l7.37,7.371v19.435c0,3.987,2.966,5.802,5.722,5.802  c0.069,0,0.127-0.001,0.155-0.003H58.64l0.117,0.002c0.625,0,1.854-0.109,3.072-0.835c1.002-0.599,2.686-2.054,2.686-5.072V68.991  l7.733-7.734C84.572,48.932,84.572,28.877,72.25,16.551z M31.911,56.89c-4.805-4.804-7.451-11.19-7.452-17.985  c0-6.794,2.645-13.182,7.449-17.986c4.804-4.803,11.192-7.449,17.987-7.449s13.182,2.645,17.988,7.448  c9.915,9.918,9.914,26.055-0.002,35.972l-9.543,9.543v19.98c0,1.065-0.719,1.246-1.107,1.272l-14.968-0.015l-0.054,0.003  c-0.009,0.001-0.037,0.003-0.077,0.003c-0.691,0-1.042-0.39-1.042-1.159V66.072L31.911,56.89z"/>
<path d="M54.567,70.26h-9.904c-1.135,0-2.055-0.919-2.055-2.054s0.92-2.055,2.055-2.055h9.904c1.134,0,2.055,0.92,2.055,2.055  S55.701,70.26,54.567,70.26L54.567,70.26z"/>
<path d="M54.567,77.724h-9.904c-1.135,0-2.055-0.921-2.055-2.055c0-1.136,0.92-2.055,2.055-2.055h9.904  c1.134,0,2.055,0.919,2.055,2.055C56.622,76.803,55.701,77.724,54.567,77.724L54.567,77.724z"/>
<path d="M54.567,85.184h-9.904c-1.135,0-2.055-0.921-2.055-2.056c0-1.134,0.92-2.054,2.055-2.054h9.904  c1.134,0,2.055,0.92,2.055,2.054C56.622,84.263,55.701,85.184,54.567,85.184L54.567,85.184z"/>
<path d="M12.845,22.263c-0.436,0-0.877-0.111-1.281-0.345l-8.578-4.952c-1.229-0.71-1.649-2.28-0.94-3.509  c0.709-1.229,2.281-1.65,3.508-0.94l8.578,4.953c1.229,0.71,1.649,2.28,0.94,3.509C14.597,21.802,13.733,22.263,12.845,22.263  L12.845,22.263z"/>
<path d="M12.473,39.583H2.568C1.15,39.583,0,38.434,0,37.015c0-1.418,1.15-2.568,2.568-2.568h9.904c1.418,0,2.568,1.15,2.568,2.568  C15.041,38.434,13.891,39.583,12.473,39.583L12.473,39.583z"/>
<path d="M97.184,39.227h-9.905c-1.418,0-2.567-1.15-2.567-2.569c0-1.418,1.149-2.568,2.567-2.568h9.905  c1.419,0,2.568,1.15,2.568,2.568C99.752,38.077,98.603,39.227,97.184,39.227L97.184,39.227z"/>
<path d="M4.273,61.677c-0.888,0-1.751-0.46-2.227-1.284c-0.709-1.228-0.289-2.799,0.94-3.508l8.578-4.953  c1.229-0.711,2.799-0.288,3.508,0.941c0.709,1.228,0.289,2.799-0.94,3.508l-8.578,4.952C5.15,61.566,4.709,61.677,4.273,61.677  L4.273,61.677z"/>
<path d="M87.146,22.354c-0.887,0-1.751-0.46-2.227-1.285c-0.709-1.228-0.288-2.798,0.939-3.508l8.578-4.953  c1.229-0.708,2.799-0.288,3.509,0.941c0.709,1.228,0.288,2.799-0.94,3.508l-8.577,4.953C88.024,22.243,87.582,22.354,87.146,22.354  L87.146,22.354z"/>
<path d="M95.72,61.769c-0.436,0-0.878-0.111-1.282-0.345l-8.578-4.952c-1.228-0.71-1.648-2.28-0.939-3.508  c0.709-1.229,2.28-1.651,3.509-0.94l8.577,4.952c1.229,0.709,1.649,2.279,0.94,3.508C97.47,61.308,96.607,61.769,95.72,61.769  L95.72,61.769z"/>
</svg>