<?xml version="1.0" encoding="utf-8"?>
<!-- Generator: Adobe Illustrator 16.0.0, SVG Export Plug-In . SVG Version: 6.00 Build 0)  -->
<!DOCTYPE svg PUBLIC "-//W3C//DTD SVG 1.1 Basic//EN" "http://www.w3.org/Graphics/SVG/1.1/DTD/svg11-basic.dtd">
<svg version="1.1" baseProfile="basic" xmlns="http://www.w3.org/2000/svg" xmlns:xlink="http://www.w3.org/1999/xlink" x="0px"
	 y="0px" width="275.5px" height="318px" viewBox="0 0 275.5 318" xml:space="preserve">
<g id="outputDeviceGestures">
	<circle fill="#F1F1F1" cx="182.307" cy="69.243" r="65.931"/>
	<circle fill="#99CC00" cx="181.775" cy="68.276" r="37.912"/>
	<g>
		<path d="M181.624,38.971c-12.459,0-22.597,10.137-22.597,22.596v0.342c-0.001,6.287-0.003,10.441,6.469,21.426
			c0.729,1.238,0.741,1.258,1.333,2.169c0.56,0.862,1.723,2.654,4.74,7.411c0.527,0.832,1.631,1.08,2.463,0.551
			c0.832-0.526,1.078-1.629,0.551-2.461c-3.026-4.773-4.197-6.576-4.761-7.443c-0.555-0.854-0.555-0.854-1.252-2.036
			c-5.978-10.146-5.977-13.71-5.974-19.613v-0.343c0-10.493,8.535-19.029,19.028-19.029s19.03,8.536,19.03,19.029v0.343
			c0.002,5.903,0.004,9.468-5.975,19.613c-0.697,1.183-0.697,1.183-1.252,2.036c-0.562,0.867-1.734,2.671-4.762,7.443
			c-0.527,0.832-0.281,1.934,0.553,2.461c0.297,0.189,0.627,0.277,0.953,0.277c0.59,0,1.168-0.291,1.508-0.827
			c3.016-4.756,4.18-6.549,4.74-7.411c0.592-0.911,0.605-0.932,1.334-2.169c6.473-10.984,6.471-15.139,6.469-21.427v-0.341
			C204.222,49.106,194.085,38.971,181.624,38.971z"/>
		<path d="M190.862,95.651h-17.938c-0.985,0-1.783,0.798-1.783,1.784c0,0.984,0.798,1.783,1.783,1.783h17.938
			c0.984,0,1.783-0.799,1.783-1.783C192.646,96.449,191.847,95.651,190.862,95.651z"/>
		<path d="M189.702,100.771h-15.617c-0.984,0-1.783,0.798-1.783,1.784c0,0.985,0.799,1.784,1.783,1.784h15.617
			c0.984,0,1.783-0.799,1.783-1.784C191.485,101.569,190.687,100.771,189.702,100.771z"/>
		<path d="M188.024,105.893h-12.262c-0.986,0-1.783,0.798-1.783,1.782c0,0.986,0.797,1.784,1.783,1.784h12.262
			c0.986,0,1.783-0.798,1.783-1.784C189.808,106.69,189.011,105.893,188.024,105.893z"/>
		<path d="M181.94,114.481c2.246,0,4.162-1.397,4.936-3.369h-9.868C177.78,113.084,179.696,114.481,181.94,114.481z"/>
		<path d="M171.853,66.959c-0.205-0.256-0.579-0.299-0.836-0.096c-0.256,0.205-0.299,0.58-0.096,0.836
			c0.105,0.132,0.227,0.259,0.355,0.384l6.344,19.353c0.082,0.251,0.314,0.41,0.564,0.41c0.062,0,0.124-0.01,0.186-0.03
			c0.312-0.103,0.482-0.437,0.38-0.751l-5.86-17.881c1.423,0.693,3.201,1.012,4.653,0.55c0.315-0.101,0.6-0.232,0.856-0.396
			c0.709,0.465,1.578,0.741,2.499,0.741c1.089,0,2.118-0.349,2.897-0.972c0.436,0.233,0.941,0.426,1.504,0.567
			c1.664,0.421,3.135,0.319,4.359-0.279l-5.793,17.669c-0.102,0.312,0.068,0.648,0.379,0.75c0.062,0.021,0.125,0.03,0.188,0.03
			c0.25,0,0.482-0.159,0.564-0.409l6.354-19.385c0.053-0.062,0.113-0.115,0.166-0.182c0.201-0.258,0.156-0.633-0.102-0.835
			c-0.26-0.202-0.633-0.157-0.834,0.102c-1.15,1.468-2.828,1.935-4.988,1.388c-0.244-0.062-0.598-0.169-0.963-0.335
			c0.357-0.562,0.535-1.202,0.508-1.851c-0.053-1.293-0.494-2.24-1.205-2.602c-0.418-0.213-0.879-0.187-1.264,0.07
			c-0.627,0.418-0.932,1.367-0.836,2.603c0.057,0.751,0.385,1.418,0.945,1.966c-0.972,0.607-2.436,0.672-3.48,0.111
			c0.397-0.561,0.628-1.266,0.674-2.09c0.064-1.155-0.293-2.09-0.952-2.5c-0.421-0.262-0.928-0.274-1.356-0.03
			c-0.673,0.381-1.046,1.294-1.026,2.505c0.013,0.783,0.315,1.52,0.817,2.125c-0.087,0.039-0.177,0.072-0.272,0.104
			C175.403,69.166,172.812,68.166,171.853,66.959z M183.329,64.796c0.012-0.008,0.018-0.013,0.027-0.013s0.02,0.004,0.037,0.013
			c0.174,0.089,0.512,0.534,0.555,1.593c0.018,0.4-0.094,0.796-0.316,1.154c-0.33-0.315-0.574-0.718-0.613-1.226
			C182.948,65.4,183.165,64.905,183.329,64.796z M178.251,64.902c0.021-0.014,0.042-0.021,0.064-0.021
			c0.021,0,0.047,0.009,0.078,0.027c0.168,0.105,0.44,0.523,0.391,1.423c-0.031,0.565-0.17,1.034-0.414,1.405
			c-0.334-0.403-0.535-0.882-0.544-1.382C177.812,65.405,178.087,64.994,178.251,64.902z"/>
		<path d="M181.948,34.814c0.822,0,1.486-0.666,1.486-1.486v-6.616c0-0.821-0.664-1.486-1.486-1.486
			c-0.82,0-1.485,0.665-1.485,1.486v6.616C180.462,34.149,181.128,34.814,181.948,34.814z"/>
		<path d="M197.663,39.828c0.26,0.186,0.561,0.274,0.859,0.274c0.465,0,0.924-0.218,1.213-0.625l3.832-5.393
			c0.475-0.67,0.316-1.599-0.352-2.073c-0.67-0.476-1.598-0.318-2.074,0.35l-3.83,5.394
			C196.835,38.424,196.993,39.353,197.663,39.828z"/>
		<path d="M209.462,53.93l6.246-2.176c0.775-0.271,1.186-1.119,0.914-1.895c-0.27-0.774-1.119-1.184-1.893-0.914l-6.246,2.178
			c-0.777,0.27-1.186,1.118-0.916,1.894c0.215,0.612,0.789,0.997,1.404,0.997C209.134,54.014,209.298,53.986,209.462,53.93z"/>
		<path d="M216.202,70.334l-6.355-1.844c-0.789-0.228-1.613,0.225-1.842,1.013c-0.229,0.79,0.227,1.614,1.014,1.842l6.355,1.845
			c0.137,0.039,0.277,0.059,0.414,0.059c0.645,0,1.238-0.423,1.428-1.072C217.444,71.389,216.989,70.563,216.202,70.334z"/>
		<path d="M162.938,39.478c0.29,0.407,0.747,0.625,1.213,0.625c0.298,0,0.599-0.089,0.859-0.274c0.67-0.476,0.826-1.404,0.351-2.073
			l-3.832-5.394c-0.476-0.668-1.403-0.825-2.071-0.35c-0.67,0.475-0.827,1.403-0.352,2.073L162.938,39.478z"/>
		<path d="M154.19,51.123l-6.246-2.178c-0.776-0.27-1.623,0.14-1.893,0.914c-0.271,0.775,0.139,1.623,0.914,1.895l6.246,2.176
			c0.162,0.057,0.327,0.084,0.49,0.084c0.615,0,1.189-0.385,1.404-0.998C155.376,52.241,154.968,51.393,154.19,51.123z"/>
		<path d="M152.827,68.49l-6.354,1.844c-0.789,0.229-1.243,1.055-1.014,1.842c0.188,0.649,0.783,1.072,1.426,1.072
			c0.137,0,0.277-0.02,0.416-0.059l6.354-1.845c0.789-0.228,1.242-1.054,1.014-1.842C154.438,68.715,153.616,68.262,152.827,68.49z"
			/>
	</g>
	<polygon fill="#F1F1F1" points="192.842,128.685 239.978,67 269.831,138.663 	"/>
	<path fill="#F1F1F1" d="M210.711,307.355c0,1.755-3.224,3.177-7.2,3.177H14.502c-3.977,0-7.2-1.422-7.2-3.177V123.387
		c0-1.753,3.224-3.176,7.2-3.176h189.009c3.977,0,7.2,1.422,7.2,3.176V307.355z"/>
	<text transform="matrix(1 0 0 1 49.5693 149.8677)" fill="#989898" font-family="'Roboto-Bold'" font-size="24">INTENSITY</text>
	<rect x="6.5" y="158.78" opacity="0.3" width="177.198" height="2"/>
	<rect x="6.502" y="253.41" fill="#33B5E5" width="204.209" height="50.844"/>
	<text transform="matrix(1 0 0 1 96.6611 192.2412)" fill="#222222" font-family="'Roboto-Regular'" font-size="18">Bright</text>
	<text transform="matrix(1 0 0 1 96.6611 239.3066)" fill="#222222" font-family="'Roboto-Regular'" font-size="18">Medium</text>
	<text transform="matrix(1 0 0 1 96.6611 287.3066)" fill="#222222" font-family="'Roboto-Regular'" font-size="18">Dim</text>
	<g>
		<path d="M28.752,127.234c-4.563,0-8.275,3.713-8.275,8.275v0.125c0,2.302-0.001,3.824,2.369,7.847
			c0.267,0.453,0.271,0.461,0.488,0.794c0.206,0.315,0.631,0.972,1.736,2.714c0.193,0.305,0.597,0.396,0.902,0.202
			c0.305-0.192,0.395-0.597,0.202-0.901c-1.108-1.748-1.538-2.408-1.744-2.726c-0.203-0.313-0.203-0.313-0.458-0.745
			c-2.189-3.716-2.188-5.021-2.188-7.183v-0.126c0-3.842,3.126-6.969,6.969-6.969s6.969,3.126,6.969,6.969v0.126
			c0.001,2.162,0.001,3.467-2.188,7.183c-0.256,0.432-0.256,0.432-0.459,0.745c-0.206,0.318-0.635,0.979-1.744,2.726
			c-0.193,0.304-0.103,0.708,0.203,0.901c0.108,0.07,0.229,0.103,0.349,0.103c0.216,0,0.428-0.107,0.552-0.304
			c1.104-1.741,1.531-2.397,1.736-2.713c0.216-0.334,0.222-0.342,0.488-0.794c2.371-4.024,2.37-5.545,2.369-7.848v-0.125
			C37.028,130.946,33.315,127.234,28.752,127.234z"/>
		<path d="M32.135,147.993h-6.57c-0.36,0-0.653,0.291-0.653,0.653c0,0.36,0.292,0.653,0.653,0.653h6.57
			c0.361,0,0.653-0.292,0.653-0.653C32.789,148.284,32.496,147.993,32.135,147.993z"/>
		<path d="M31.71,149.867h-5.719c-0.361,0-0.653,0.293-0.653,0.654s0.292,0.653,0.653,0.653h5.719c0.361,0,0.653-0.292,0.653-0.653
			S32.071,149.867,31.71,149.867z"/>
		<path d="M31.096,151.743h-4.49c-0.361,0-0.653,0.292-0.653,0.653s0.292,0.653,0.653,0.653h4.49c0.361,0,0.653-0.292,0.653-0.653
			S31.457,151.743,31.096,151.743z"/>
		<path d="M28.868,154.889c0.823,0,1.524-0.512,1.808-1.235h-3.614C27.344,154.377,28.046,154.889,28.868,154.889z"/>
		<path d="M25.173,137.484c-0.075-0.094-0.212-0.109-0.306-0.035c-0.094,0.075-0.109,0.213-0.035,0.306
			c0.039,0.047,0.083,0.094,0.13,0.14l2.323,7.088c0.03,0.092,0.115,0.151,0.207,0.151c0.023,0,0.046-0.004,0.068-0.012
			c0.115-0.037,0.177-0.16,0.14-0.275l-2.146-6.548c0.521,0.254,1.172,0.371,1.705,0.202c0.115-0.037,0.219-0.085,0.313-0.145
			c0.26,0.171,0.578,0.271,0.915,0.271c0.399,0,0.776-0.128,1.062-0.356c0.159,0.085,0.345,0.156,0.551,0.208
			c0.609,0.153,1.147,0.116,1.596-0.104l-2.122,6.471c-0.037,0.115,0.025,0.239,0.139,0.275c0.023,0.008,0.046,0.011,0.069,0.011
			c0.091,0,0.177-0.058,0.207-0.15l2.327-7.099c0.019-0.022,0.041-0.042,0.061-0.066c0.074-0.095,0.057-0.232-0.037-0.306
			c-0.095-0.074-0.231-0.059-0.305,0.038c-0.421,0.537-1.036,0.708-1.827,0.508c-0.089-0.022-0.219-0.062-0.353-0.123
			c0.131-0.206,0.196-0.439,0.186-0.677c-0.019-0.474-0.181-0.821-0.441-0.954c-0.153-0.078-0.322-0.068-0.463,0.025
			c-0.229,0.154-0.341,0.501-0.306,0.954c0.021,0.275,0.141,0.52,0.346,0.72c-0.355,0.223-0.892,0.246-1.274,0.041
			c0.146-0.205,0.23-0.463,0.247-0.765c0.023-0.423-0.107-0.766-0.349-0.917c-0.154-0.095-0.34-0.1-0.497-0.01
			c-0.247,0.14-0.383,0.474-0.376,0.917c0.005,0.287,0.116,0.557,0.3,0.779c-0.032,0.014-0.065,0.026-0.1,0.038
			C26.474,138.292,25.525,137.926,25.173,137.484z M29.376,136.691c0.004-0.002,0.006-0.004,0.01-0.004s0.007,0.001,0.013,0.004
			c0.064,0.033,0.188,0.196,0.203,0.584c0.006,0.146-0.034,0.291-0.116,0.422c-0.121-0.115-0.21-0.263-0.225-0.448
			C29.237,136.913,29.316,136.731,29.376,136.691z M27.517,136.731c0.008-0.005,0.016-0.008,0.024-0.008
			c0.008,0,0.017,0.002,0.029,0.01c0.061,0.039,0.161,0.192,0.143,0.521c-0.012,0.207-0.062,0.378-0.152,0.514
			c-0.122-0.147-0.196-0.322-0.199-0.506C27.356,136.915,27.457,136.765,27.517,136.731z"/>
		<path d="M28.871,125.712c0.301,0,0.544-0.245,0.544-0.544v-2.423c0-0.3-0.243-0.544-0.544-0.544c-0.3,0-0.544,0.244-0.544,0.544
			v2.423C28.327,125.468,28.57,125.712,28.871,125.712z"/>
		<path d="M34.626,127.548c0.096,0.068,0.205,0.101,0.315,0.101c0.17,0,0.338-0.08,0.444-0.229l1.403-1.974
			c0.174-0.246,0.116-0.585-0.128-0.76c-0.245-0.174-0.585-0.116-0.759,0.129l-1.403,1.975
			C34.323,127.033,34.381,127.374,34.626,127.548z"/>
		<path d="M38.947,132.711l2.288-0.795c0.284-0.1,0.434-0.411,0.334-0.695c-0.099-0.283-0.41-0.433-0.693-0.333l-2.288,0.797
			c-0.285,0.1-0.435,0.41-0.335,0.693c0.079,0.225,0.289,0.365,0.514,0.365C38.827,132.743,38.887,132.733,38.947,132.711z"/>
		<path d="M41.416,138.721l-2.328-0.676c-0.289-0.083-0.59,0.083-0.674,0.372c-0.083,0.289,0.083,0.59,0.372,0.674l2.328,0.676
			c0.05,0.014,0.101,0.021,0.151,0.021c0.236,0,0.454-0.155,0.523-0.393C41.871,139.106,41.704,138.804,41.416,138.721z"/>
		<path d="M21.909,127.419c0.106,0.149,0.273,0.229,0.444,0.229c0.109,0,0.219-0.032,0.315-0.101
			c0.245-0.174,0.303-0.515,0.128-0.759l-1.403-1.975c-0.174-0.245-0.514-0.303-0.759-0.129c-0.246,0.174-0.303,0.514-0.129,0.76
			L21.909,127.419z"/>
		<path d="M18.705,131.684l-2.287-0.797c-0.284-0.099-0.594,0.051-0.693,0.333c-0.099,0.285,0.051,0.596,0.335,0.695l2.287,0.795
			c0.06,0.021,0.12,0.031,0.18,0.031c0.225,0,0.436-0.141,0.514-0.365C19.139,132.094,18.99,131.784,18.705,131.684z"/>
		<path d="M18.206,138.044l-2.327,0.676c-0.289,0.083-0.456,0.385-0.371,0.674c0.068,0.238,0.287,0.393,0.522,0.393
			c0.05,0,0.102-0.007,0.152-0.021l2.327-0.676c0.289-0.084,0.455-0.387,0.371-0.674C18.796,138.127,18.495,137.961,18.206,138.044z
			"/>
	</g>
	<path d="M31.741,181.144c0.472,0,0.853-0.383,0.853-0.854v-3.795c0-0.469-0.381-0.852-0.853-0.852
		c-0.471,0-0.853,0.383-0.853,0.852v3.795C30.888,180.761,31.27,181.144,31.741,181.144z"/>
	<path d="M35.452,182.329c0.15,0.105,0.321,0.156,0.493,0.156c0.268,0,0.53-0.125,0.696-0.359l2.197-3.092
		c0.273-0.387,0.182-0.918-0.201-1.191c-0.384-0.271-0.916-0.18-1.189,0.203l-2.197,3.094
		C34.978,181.522,35.068,182.056,35.452,182.329z"/>
	<path d="M38.877,185.966l3.584-1.246c0.444-0.156,0.68-0.645,0.523-1.09c-0.154-0.441-0.642-0.678-1.085-0.521l-3.583,1.248
		c-0.446,0.156-0.681,0.643-0.526,1.086c0.124,0.352,0.453,0.572,0.806,0.572C38.689,186.015,38.783,185.999,38.877,185.966z"/>
	<path d="M42.595,189.813l-3.646-1.061c-0.452-0.127-0.925,0.131-1.057,0.584c-0.131,0.453,0.13,0.926,0.582,1.057l3.646,1.059
		c0.078,0.021,0.158,0.031,0.237,0.031c0.369,0,0.71-0.242,0.818-0.613C43.308,190.417,43.047,189.944,42.595,189.813z"/>
	<path d="M26.491,182.126c0.166,0.234,0.427,0.359,0.694,0.359c0.172,0,0.344-0.051,0.494-0.156c0.384-0.273,0.474-0.807,0.2-1.189
		l-2.197-3.094c-0.273-0.383-0.806-0.475-1.188-0.203c-0.385,0.273-0.475,0.805-0.202,1.191L26.491,182.126z"/>
	<path d="M24.813,184.356l-3.582-1.248c-0.445-0.156-0.931,0.08-1.086,0.521c-0.154,0.445,0.08,0.934,0.525,1.09l3.582,1.246
		c0.094,0.033,0.188,0.049,0.282,0.049c0.353,0,0.682-0.221,0.805-0.572C25.495,184.999,25.261,184.513,24.813,184.356z"/>
	<path d="M24.18,188.753l-3.645,1.061c-0.453,0.131-0.714,0.604-0.581,1.057c0.107,0.371,0.449,0.613,0.817,0.613
		c0.079,0,0.159-0.01,0.238-0.031l3.646-1.059c0.452-0.131,0.713-0.605,0.581-1.057C25.105,188.884,24.633,188.626,24.18,188.753z"
		/>
	<path d="M30.741,225.45c0.354,0,0.639-0.287,0.639-0.641v-2.846c0-0.352-0.285-0.639-0.639-0.639c-0.353,0-0.639,0.287-0.639,0.639
		v2.846C30.102,225.163,30.388,225.45,30.741,225.45z"/>
	<path d="M34.85,226.762c0.113,0.079,0.241,0.117,0.37,0.117c0.201,0,0.398-0.094,0.522-0.27l1.648-2.318
		c0.205-0.29,0.136-0.688-0.151-0.894c-0.288-0.204-0.687-0.135-0.892,0.152l-1.648,2.32
		C34.494,226.157,34.562,226.557,34.85,226.762z"/>
	<path d="M38.255,230.603l2.688-0.935c0.333-0.117,0.51-0.483,0.393-0.817c-0.115-0.331-0.481-0.509-0.813-0.392l-2.688,0.937
		c-0.334,0.117-0.51,0.481-0.395,0.814c0.093,0.264,0.34,0.429,0.604,0.429C38.114,230.639,38.185,230.627,38.255,230.603z"/>
	<path d="M41.08,234.879l-2.734-0.796c-0.339-0.095-0.694,0.099-0.792,0.438c-0.098,0.34,0.098,0.694,0.437,0.792l2.735,0.795
		c0.059,0.016,0.119,0.023,0.178,0.023c0.276,0,0.532-0.182,0.613-0.461C41.615,235.331,41.419,234.978,41.08,234.879z"/>
	<path d="M25.39,226.609c0.125,0.176,0.32,0.27,0.521,0.27c0.129,0,0.258-0.038,0.371-0.117c0.288-0.205,0.355-0.604,0.15-0.892
		l-1.648-2.32c-0.205-0.287-0.604-0.356-0.891-0.152c-0.289,0.205-0.356,0.604-0.152,0.894L25.39,226.609z"/>
	<path d="M23.296,229.396l-2.687-0.937c-0.334-0.117-0.698,0.061-0.814,0.392c-0.116,0.334,0.06,0.7,0.394,0.817l2.687,0.935
		c0.07,0.024,0.141,0.036,0.212,0.036c0.264,0,0.511-0.165,0.604-0.429C23.807,229.877,23.631,229.513,23.296,229.396z"/>
	<path d="M22.784,234.083l-2.733,0.796c-0.34,0.099-0.536,0.452-0.436,0.792c0.081,0.279,0.337,0.461,0.613,0.461
		c0.06,0,0.12-0.008,0.179-0.023l2.734-0.795c0.339-0.098,0.535-0.453,0.436-0.792C23.478,234.182,23.124,233.988,22.784,234.083z"
		/>
	<path d="M30.741,274.802c0.236,0,0.426-0.191,0.426-0.427v-1.897c0-0.234-0.19-0.426-0.426-0.426c-0.235,0-0.426,0.191-0.426,0.426
		v1.897C30.314,274.61,30.505,274.802,30.741,274.802z"/>
	<path d="M35.248,276.24c0.075,0.053,0.161,0.078,0.247,0.078c0.134,0,0.265-0.062,0.348-0.18l1.099-1.546
		c0.137-0.193,0.091-0.459-0.101-0.596c-0.192-0.136-0.458-0.09-0.595,0.102l-1.099,1.547
		C35.011,275.837,35.056,276.104,35.248,276.24z"/>
	<path d="M38.632,280.284l1.792-0.623c0.222-0.078,0.34-0.322,0.262-0.545c-0.077-0.221-0.321-0.339-0.542-0.261l-1.792,0.624
		c-0.223,0.078-0.34,0.321-0.263,0.543c0.062,0.176,0.227,0.286,0.403,0.286C38.539,280.309,38.585,280.301,38.632,280.284z"/>
	<path d="M40.565,284.99l-1.823-0.53c-0.226-0.063-0.462,0.065-0.528,0.292c-0.065,0.227,0.065,0.463,0.291,0.528l1.823,0.529
		c0.039,0.011,0.079,0.016,0.119,0.016c0.185,0,0.355-0.121,0.409-0.307C40.922,285.292,40.792,285.056,40.565,284.99z"/>
	<path d="M25.289,276.139c0.083,0.117,0.213,0.18,0.347,0.18c0.086,0,0.172-0.025,0.247-0.078c0.192-0.137,0.237-0.403,0.1-0.595
		l-1.099-1.547c-0.137-0.191-0.403-0.237-0.594-0.102c-0.192,0.137-0.237,0.402-0.101,0.596L25.289,276.139z"/>
	<path d="M22.778,279.479l-1.791-0.624c-0.223-0.078-0.465,0.04-0.543,0.261c-0.077,0.223,0.04,0.467,0.263,0.545l1.791,0.623
		c0.047,0.017,0.094,0.024,0.141,0.024c0.176,0,0.341-0.11,0.402-0.286C23.119,279.801,23.002,279.558,22.778,279.479z"/>
	<path d="M22.388,284.46l-1.822,0.53c-0.227,0.065-0.357,0.302-0.291,0.528c0.054,0.186,0.225,0.307,0.409,0.307
		c0.04,0,0.08-0.005,0.119-0.016l1.823-0.529c0.226-0.065,0.356-0.303,0.291-0.528C22.85,284.525,22.614,284.396,22.388,284.46z"/>
</g>
<g id="outputDeviceGestureActive">
	<circle fill="#F1F1F1" cx="182.717" cy="68.932" r="65.931"/>
	<circle fill="#99CC00" cx="182.184" cy="67.965" r="37.912"/>
	<g>
		<path d="M182.033,38.659c-12.459,0-22.597,10.137-22.597,22.596v0.342c-0.001,6.287-0.003,10.441,6.469,21.426
			c0.729,1.238,0.741,1.258,1.333,2.169c0.56,0.862,1.723,2.654,4.74,7.411c0.527,0.832,1.631,1.08,2.463,0.551
			c0.832-0.526,1.078-1.629,0.551-2.461c-3.026-4.773-4.197-6.576-4.761-7.443c-0.555-0.854-0.555-0.854-1.252-2.036
			c-5.978-10.146-5.977-13.71-5.974-19.613v-0.343c0-10.493,8.535-19.029,19.028-19.029s19.03,8.536,19.03,19.029V61.6
			c0.002,5.903,0.004,9.468-5.975,19.613c-0.697,1.183-0.697,1.183-1.252,2.036c-0.562,0.867-1.734,2.671-4.762,7.443
			c-0.527,0.832-0.281,1.934,0.553,2.461c0.297,0.189,0.627,0.277,0.953,0.277c0.59,0,1.168-0.291,1.508-0.827
			c3.016-4.756,4.18-6.549,4.74-7.411c0.592-0.911,0.605-0.932,1.334-2.169c6.473-10.984,6.471-15.139,6.469-21.427v-0.341
			C204.631,48.795,194.494,38.659,182.033,38.659z"/>
		<path d="M191.271,95.34h-17.938c-0.985,0-1.783,0.798-1.783,1.784c0,0.984,0.798,1.783,1.783,1.783h17.938
			c0.984,0,1.783-0.799,1.783-1.783C193.055,96.138,192.256,95.34,191.271,95.34z"/>
		<path d="M190.111,100.46h-15.617c-0.984,0-1.783,0.798-1.783,1.784c0,0.985,0.799,1.784,1.783,1.784h15.617
			c0.984,0,1.783-0.799,1.783-1.784C191.895,101.258,191.096,100.46,190.111,100.46z"/>
		<path d="M188.434,105.581h-12.262c-0.986,0-1.783,0.798-1.783,1.782c0,0.986,0.797,1.784,1.783,1.784h12.262
			c0.986,0,1.783-0.798,1.783-1.784C190.217,106.379,189.42,105.581,188.434,105.581z"/>
		<path d="M182.35,114.17c2.246,0,4.162-1.397,4.936-3.369h-9.868C178.189,112.772,180.105,114.17,182.35,114.17z"/>
		<path d="M172.262,66.647c-0.205-0.256-0.579-0.299-0.836-0.096c-0.256,0.205-0.299,0.58-0.096,0.836
			c0.105,0.132,0.227,0.259,0.355,0.384l6.344,19.353c0.082,0.251,0.314,0.41,0.564,0.41c0.062,0,0.124-0.01,0.186-0.03
			c0.312-0.103,0.482-0.437,0.38-0.751l-5.86-17.881c1.423,0.693,3.201,1.012,4.653,0.55c0.315-0.101,0.6-0.232,0.856-0.396
			c0.709,0.465,1.578,0.741,2.499,0.741c1.089,0,2.118-0.349,2.897-0.972c0.436,0.233,0.941,0.426,1.504,0.567
			c1.664,0.421,3.135,0.319,4.359-0.279l-5.793,17.669c-0.102,0.312,0.068,0.648,0.379,0.75c0.062,0.021,0.125,0.03,0.188,0.03
			c0.25,0,0.482-0.159,0.564-0.409l6.354-19.385c0.053-0.062,0.113-0.115,0.166-0.182c0.201-0.258,0.156-0.633-0.102-0.835
			c-0.26-0.202-0.633-0.157-0.834,0.102c-1.15,1.468-2.828,1.935-4.988,1.388c-0.244-0.062-0.598-0.169-0.963-0.335
			c0.357-0.562,0.535-1.202,0.508-1.851c-0.053-1.293-0.494-2.24-1.205-2.602c-0.418-0.213-0.879-0.187-1.264,0.07
			c-0.627,0.418-0.932,1.367-0.836,2.603c0.057,0.751,0.385,1.418,0.945,1.966c-0.972,0.607-2.436,0.672-3.48,0.111
			c0.397-0.561,0.628-1.266,0.674-2.09c0.064-1.155-0.293-2.09-0.952-2.5c-0.421-0.262-0.928-0.274-1.356-0.03
			c-0.673,0.381-1.046,1.294-1.026,2.505c0.013,0.783,0.315,1.52,0.817,2.125c-0.087,0.039-0.177,0.072-0.272,0.104
			C175.812,68.854,173.222,67.854,172.262,66.647z M183.738,64.484c0.012-0.008,0.018-0.013,0.027-0.013s0.02,0.004,0.037,0.013
			c0.174,0.089,0.512,0.534,0.555,1.593c0.018,0.4-0.094,0.796-0.316,1.154c-0.33-0.315-0.574-0.718-0.613-1.226
			C183.357,65.089,183.574,64.594,183.738,64.484z M178.66,64.591c0.021-0.014,0.042-0.021,0.064-0.021
			c0.021,0,0.047,0.009,0.078,0.027c0.168,0.105,0.44,0.523,0.391,1.423c-0.031,0.565-0.17,1.034-0.414,1.405
			c-0.334-0.403-0.535-0.882-0.544-1.382C178.221,65.094,178.496,64.683,178.66,64.591z"/>
		<path d="M182.357,34.503c0.822,0,1.486-0.666,1.486-1.486V26.4c0-0.821-0.664-1.486-1.486-1.486c-0.82,0-1.485,0.665-1.485,1.486
			v6.616C180.871,33.838,181.537,34.503,182.357,34.503z"/>
		<path d="M198.072,39.517c0.26,0.186,0.561,0.274,0.859,0.274c0.465,0,0.924-0.218,1.213-0.625l3.832-5.393
			c0.475-0.67,0.316-1.599-0.352-2.073c-0.67-0.476-1.598-0.318-2.074,0.35l-3.83,5.394
			C197.244,38.112,197.402,39.041,198.072,39.517z"/>
		<path d="M209.871,53.618l6.246-2.176c0.775-0.271,1.186-1.119,0.914-1.895c-0.27-0.774-1.119-1.184-1.893-0.914l-6.246,2.178
			c-0.777,0.27-1.186,1.118-0.916,1.894c0.215,0.612,0.789,0.997,1.404,0.997C209.543,53.702,209.707,53.675,209.871,53.618z"/>
		<path d="M216.611,70.022l-6.355-1.844c-0.789-0.228-1.613,0.225-1.842,1.013c-0.229,0.79,0.227,1.614,1.014,1.842l6.355,1.845
			c0.137,0.039,0.277,0.059,0.414,0.059c0.645,0,1.238-0.423,1.428-1.072C217.854,71.077,217.398,70.252,216.611,70.022z"/>
		<path d="M163.348,39.166c0.29,0.407,0.747,0.625,1.213,0.625c0.298,0,0.599-0.089,0.859-0.274c0.67-0.476,0.826-1.404,0.351-2.073
			l-3.832-5.394c-0.476-0.668-1.403-0.825-2.071-0.35c-0.67,0.475-0.827,1.403-0.352,2.073L163.348,39.166z"/>
		<path d="M154.6,50.812l-6.246-2.178c-0.776-0.27-1.623,0.14-1.893,0.914c-0.271,0.775,0.139,1.623,0.914,1.895l6.246,2.176
			c0.162,0.057,0.327,0.084,0.49,0.084c0.615,0,1.189-0.385,1.404-0.998C155.785,51.93,155.377,51.081,154.6,50.812z"/>
		<path d="M153.236,68.179l-6.354,1.844c-0.789,0.229-1.243,1.055-1.014,1.842c0.188,0.649,0.783,1.072,1.426,1.072
			c0.137,0,0.277-0.02,0.416-0.059l6.354-1.845c0.789-0.228,1.242-1.054,1.014-1.842C154.848,68.403,154.025,67.95,153.236,68.179z"
			/>
	</g>
	<polygon fill="#F1F1F1" points="193.251,128.373 240.387,66.688 270.24,138.352 	"/>
	<circle fill="#F1F1F1" cx="95.438" cy="72.825" r="39.21"/>
	<path d="M94.184,68.399c0.236,0,0.426-0.191,0.426-0.427v-1.897c0-0.234-0.19-0.426-0.426-0.426c-0.235,0-0.426,0.191-0.426,0.426
		v1.897C93.758,68.208,93.949,68.399,94.184,68.399z"/>
	<path d="M98.691,69.838c0.075,0.053,0.161,0.078,0.247,0.078c0.134,0,0.265-0.062,0.348-0.18l1.099-1.546
		c0.137-0.193,0.091-0.459-0.101-0.596c-0.192-0.136-0.458-0.09-0.595,0.102l-1.099,1.547C98.454,69.435,98.5,69.701,98.691,69.838z
		"/>
	<path d="M102.076,73.882l1.792-0.623c0.222-0.078,0.34-0.322,0.262-0.545c-0.077-0.221-0.321-0.339-0.542-0.261l-1.792,0.624
		c-0.223,0.078-0.34,0.321-0.263,0.543c0.062,0.176,0.227,0.286,0.403,0.286C101.982,73.906,102.029,73.898,102.076,73.882z"/>
	<path d="M104.009,78.588l-1.823-0.53c-0.226-0.063-0.462,0.065-0.528,0.292c-0.065,0.227,0.065,0.463,0.291,0.528l1.823,0.529
		c0.039,0.011,0.079,0.016,0.119,0.016c0.185,0,0.355-0.121,0.409-0.307C104.365,78.89,104.235,78.653,104.009,78.588z"/>
	<path d="M88.732,69.736c0.083,0.117,0.213,0.18,0.347,0.18c0.086,0,0.172-0.025,0.247-0.078c0.192-0.137,0.237-0.403,0.1-0.595
		l-1.099-1.547c-0.137-0.191-0.403-0.237-0.594-0.102c-0.192,0.137-0.237,0.402-0.101,0.596L88.732,69.736z"/>
	<path d="M86.222,73.077l-1.791-0.624c-0.223-0.078-0.465,0.04-0.543,0.261c-0.077,0.223,0.04,0.467,0.263,0.545l1.791,0.623
		c0.047,0.017,0.094,0.024,0.141,0.024c0.176,0,0.341-0.11,0.402-0.286C86.562,73.398,86.445,73.155,86.222,73.077z"/>
	<path d="M85.831,78.058l-1.822,0.53c-0.227,0.065-0.357,0.302-0.291,0.528c0.054,0.186,0.225,0.307,0.409,0.307
		c0.04,0,0.08-0.005,0.119-0.016l1.823-0.529c0.226-0.065,0.356-0.303,0.291-0.528C86.293,78.123,86.058,77.994,85.831,78.058z"/>
</g>
</svg>
