<?xml version="1.0" encoding="utf-8"?>
<!-- Generator: Adobe Illustrator 16.0.0, SVG Export Plug-In . SVG Version: 6.00 Build 0)  -->
<!DOCTYPE svg PUBLIC "-//W3C//DTD SVG 1.1 Basic//EN" "http://www.w3.org/Graphics/SVG/1.1/DTD/svg11-basic.dtd">
<svg version="1.1" baseProfile="basic" id="lightPopup"
	 xmlns="http://www.w3.org/2000/svg" xmlns:xlink="http://www.w3.org/1999/xlink" x="0px" y="0px" width="374.333px" height="302px"
	 viewBox="0 0 374.333 302" xml:space="preserve">
<path fill="#F1F1F1" d="M311.94,292.614c0,1.886-4.849,3.417-10.834,3.417H16.702c-5.984,0-10.834-1.531-10.834-3.417V94.697
	c0-1.888,4.851-3.417,10.834-3.417h284.404c5.985,0,10.834,1.529,10.834,3.417V292.614z"/>
<polygon display="none" fill="#F1F1F1" points="496.391,392.783 543.527,331.098 573.38,402.761 "/>
<rect id="outputBar" x="296.355" y="143.914" fill="#FFBB33" width="15.291" height="88.405"/>
<text transform="matrix(1 0 0 1 80.8706 130.9429)" fill="#989898" font-family="'Roboto-Bold'" font-size="30.5813">LIGHTS</text>
<rect id="buttonHighlight" x="14.371" y="146.506" fill="#33B5E5" width="247.205" height="64.787"/>
<text transform="matrix(1 0 0 1 95.9531 189.2314)" fill="#222222" font-family="'Roboto-Regular'" font-size="22.936">Set Intensity</text>
<text transform="matrix(1 0 0 1 97.2295 254.8408)" fill="#222222" font-family="'Roboto-Regular'" font-size="22.936">Turn Off</text>
<g>
	<path d="M44.324,222.66c-7.992,0-14.494,6.503-14.494,14.494v0.219c-0.001,4.032-0.002,6.697,4.149,13.743
		c0.468,0.793,0.476,0.807,0.854,1.391c0.359,0.552,1.105,1.702,3.041,4.753c0.338,0.534,1.046,0.694,1.579,0.354
		c0.534-0.337,0.692-1.045,0.354-1.578c-1.941-3.061-2.692-4.218-3.054-4.774c-0.356-0.549-0.356-0.549-0.803-1.306
		c-3.834-6.508-3.833-8.795-3.831-12.58v-0.222c0-6.729,5.475-12.206,12.205-12.206c6.731,0,12.207,5.477,12.207,12.206v0.222
		c0.002,3.785,0.002,6.072-3.832,12.58c-0.447,0.757-0.447,0.757-0.803,1.306c-0.361,0.556-1.112,1.713-3.054,4.774
		c-0.338,0.533-0.181,1.241,0.354,1.578c0.19,0.122,0.402,0.179,0.612,0.179c0.378,0,0.749-0.188,0.967-0.532
		c1.934-3.049,2.681-4.199,3.041-4.752c0.379-0.585,0.388-0.599,0.855-1.391c4.152-7.047,4.15-9.711,4.149-13.744v-0.219
		C58.819,229.161,52.316,222.66,44.324,222.66z"/>
	<path d="M50.25,259.017H38.743c-0.631,0-1.144,0.51-1.144,1.144c0,0.631,0.512,1.144,1.144,1.144H50.25
		c0.632,0,1.145-0.513,1.145-1.144C51.394,259.527,50.881,259.017,50.25,259.017z"/>
	<path d="M49.505,262.3H39.488c-0.631,0-1.144,0.513-1.144,1.145c0,0.632,0.513,1.145,1.144,1.145h10.017
		c0.632,0,1.145-0.513,1.145-1.145C50.65,262.812,50.137,262.3,49.505,262.3z"/>
	<path d="M48.429,265.586h-7.864c-0.633,0-1.144,0.512-1.144,1.144c0,0.632,0.511,1.144,1.144,1.144h7.864
		c0.633,0,1.144-0.511,1.144-1.144C49.573,266.098,49.062,265.586,48.429,265.586z"/>
	<path d="M38.056,240.612c-0.131-0.164-0.372-0.19-0.536-0.061c-0.164,0.132-0.191,0.374-0.062,0.537
		c0.068,0.083,0.146,0.166,0.228,0.245l4.069,12.414c0.053,0.162,0.202,0.264,0.362,0.264c0.04,0,0.08-0.006,0.119-0.02
		c0.201-0.064,0.31-0.28,0.244-0.482l-3.759-11.468c0.914,0.446,2.054,0.649,2.985,0.354c0.202-0.065,0.385-0.149,0.549-0.254
		c0.455,0.299,1.012,0.476,1.603,0.476c0.699,0,1.358-0.224,1.859-0.624c0.279,0.149,0.604,0.272,0.964,0.364
		c1.067,0.269,2.01,0.204,2.796-0.18l-3.715,11.333c-0.065,0.201,0.044,0.418,0.243,0.482c0.04,0.014,0.08,0.019,0.121,0.019
		c0.16,0,0.309-0.102,0.362-0.263l4.076-12.434c0.033-0.04,0.072-0.074,0.106-0.116c0.129-0.166,0.101-0.407-0.065-0.536
		c-0.167-0.13-0.406-0.103-0.535,0.066c-0.738,0.94-1.814,1.24-3.2,0.89c-0.156-0.04-0.383-0.11-0.617-0.215
		c0.229-0.361,0.343-0.771,0.325-1.186c-0.034-0.83-0.317-1.438-0.773-1.67c-0.268-0.137-0.563-0.12-0.811,0.045
		c-0.402,0.269-0.597,0.877-0.536,1.67c0.037,0.481,0.247,0.91,0.606,1.26c-0.623,0.39-1.562,0.431-2.232,0.071
		c0.255-0.36,0.403-0.812,0.433-1.339c0.041-0.742-0.188-1.342-0.611-1.605c-0.27-0.167-0.595-0.175-0.87-0.019
		c-0.432,0.245-0.671,0.83-0.659,1.606c0.008,0.503,0.203,0.976,0.524,1.364c-0.056,0.025-0.113,0.046-0.175,0.066
		C40.334,242.028,38.672,241.387,38.056,240.612z M45.418,239.225c0.007-0.005,0.011-0.008,0.017-0.008
		c0.007,0,0.013,0.002,0.024,0.008c0.112,0.057,0.329,0.343,0.356,1.022c0.011,0.256-0.06,0.509-0.203,0.739
		c-0.211-0.202-0.368-0.46-0.393-0.785C45.174,239.613,45.312,239.294,45.418,239.225z M42.16,239.293
		c0.014-0.009,0.027-0.014,0.042-0.014c0.014,0,0.031,0.005,0.051,0.017c0.107,0.067,0.282,0.336,0.25,0.914
		c-0.021,0.362-0.109,0.662-0.266,0.901c-0.214-0.259-0.343-0.565-0.349-0.886C41.879,239.615,42.055,239.353,42.16,239.293z"/>
	<path d="M44.527,271.095c1.441,0,2.67-0.896,3.167-2.163h-6.33C41.858,270.199,43.087,271.095,44.527,271.095z"/>
</g>
<g id="lightOn">
	<path d="M44.599,157.833c-7.992,0-14.494,6.501-14.494,14.493v0.22c-0.001,4.032-0.002,6.697,4.149,13.743
		c0.468,0.794,0.475,0.808,0.854,1.391c0.36,0.553,1.105,1.703,3.042,4.754c0.337,0.533,1.046,0.693,1.579,0.353
		c0.534-0.337,0.691-1.045,0.354-1.578c-1.941-3.062-2.693-4.218-3.055-4.775c-0.355-0.548-0.355-0.548-0.803-1.305
		c-3.833-6.509-3.833-8.794-3.831-12.581v-0.22c0-6.731,5.475-12.207,12.205-12.207c6.731,0,12.207,5.476,12.207,12.207v0.22
		c0.002,3.787,0.002,6.072-3.832,12.581c-0.447,0.757-0.447,0.757-0.803,1.305c-0.361,0.557-1.112,1.713-3.054,4.775
		c-0.338,0.533-0.18,1.241,0.354,1.578c0.19,0.122,0.402,0.178,0.612,0.178c0.378,0,0.749-0.188,0.967-0.531
		c1.935-3.05,2.681-4.2,3.041-4.753c0.379-0.585,0.388-0.598,0.855-1.391c4.152-7.047,4.151-9.711,4.149-13.744v-0.218
		C59.094,164.334,52.592,157.833,44.599,157.833z"/>
	<path d="M50.525,194.19H39.018c-0.631,0-1.144,0.511-1.144,1.144c0,0.631,0.512,1.144,1.144,1.144h11.507
		c0.631,0,1.144-0.513,1.144-1.144C51.669,194.701,51.156,194.19,50.525,194.19z"/>
	<path d="M49.781,197.473H39.764c-0.632,0-1.145,0.512-1.145,1.145c0,0.632,0.513,1.145,1.145,1.145h10.017
		c0.631,0,1.144-0.513,1.144-1.145C50.925,197.985,50.412,197.473,49.781,197.473z"/>
	<path d="M48.704,200.759H40.84c-0.633,0-1.144,0.511-1.144,1.143s0.511,1.144,1.144,1.144h7.864c0.633,0,1.145-0.512,1.145-1.144
		S49.337,200.759,48.704,200.759z"/>
	<path d="M44.802,206.268c1.441,0,2.67-0.896,3.167-2.162h-6.33C42.133,205.371,43.362,206.268,44.802,206.268z"/>
	<path d="M38.331,175.785c-0.131-0.165-0.371-0.191-0.536-0.061c-0.164,0.132-0.191,0.373-0.062,0.536
		c0.068,0.084,0.146,0.166,0.228,0.246l4.069,12.414c0.053,0.161,0.202,0.263,0.362,0.263c0.04,0,0.08-0.006,0.119-0.02
		c0.201-0.066,0.31-0.28,0.244-0.482l-3.759-11.469c0.913,0.445,2.054,0.649,2.985,0.353c0.202-0.064,0.385-0.149,0.549-0.254
		c0.455,0.299,1.013,0.476,1.603,0.476c0.699,0,1.359-0.224,1.859-0.623c0.279,0.149,0.604,0.273,0.964,0.364
		c1.067,0.27,2.01,0.205,2.796-0.18l-3.716,11.333c-0.065,0.201,0.044,0.417,0.243,0.481c0.041,0.014,0.08,0.019,0.121,0.019
		c0.16,0,0.309-0.102,0.362-0.262l4.075-12.434c0.034-0.041,0.072-0.074,0.106-0.116c0.128-0.167,0.1-0.407-0.065-0.537
		c-0.167-0.129-0.406-0.102-0.535,0.066c-0.738,0.941-1.814,1.24-3.2,0.889c-0.156-0.04-0.383-0.108-0.617-0.215
		c0.229-0.361,0.343-0.771,0.325-1.186c-0.034-0.83-0.316-1.438-0.772-1.669c-0.269-0.136-0.564-0.12-0.811,0.045
		c-0.402,0.269-0.597,0.877-0.536,1.67c0.037,0.481,0.247,0.909,0.606,1.26c-0.623,0.39-1.562,0.431-2.232,0.072
		c0.255-0.36,0.403-0.812,0.433-1.34c0.041-0.742-0.188-1.34-0.611-1.604c-0.27-0.167-0.595-0.176-0.87-0.019
		c-0.432,0.244-0.671,0.83-0.659,1.607c0.008,0.502,0.203,0.974,0.524,1.362c-0.055,0.026-0.113,0.047-0.175,0.067
		C40.609,177.201,38.947,176.559,38.331,175.785z M45.693,174.398c0.007-0.005,0.011-0.008,0.018-0.008
		c0.007,0,0.012,0.002,0.023,0.008c0.112,0.056,0.329,0.343,0.356,1.021c0.011,0.257-0.06,0.509-0.203,0.74
		c-0.212-0.202-0.369-0.46-0.394-0.786C45.449,174.785,45.588,174.467,45.693,174.398z M42.435,174.465
		c0.014-0.008,0.027-0.013,0.042-0.013c0.014,0,0.03,0.005,0.05,0.017c0.107,0.068,0.282,0.336,0.25,0.913
		c-0.021,0.363-0.109,0.664-0.266,0.901c-0.214-0.257-0.343-0.565-0.349-0.886C42.154,174.788,42.33,174.525,42.435,174.465z"/>
	<path d="M44.807,155.166c0.528,0,0.954-0.427,0.954-0.953v-4.244c0-0.526-0.426-0.953-0.954-0.953
		c-0.525,0-0.952,0.427-0.952,0.953v4.244C43.854,154.74,44.281,155.166,44.807,155.166z"/>
	<path d="M54.887,158.383c0.167,0.118,0.36,0.176,0.551,0.176c0.299,0,0.593-0.141,0.778-0.402l2.458-3.458
		c0.305-0.43,0.204-1.026-0.225-1.33c-0.429-0.306-1.025-0.204-1.33,0.225l-2.457,3.459
		C54.356,157.481,54.458,158.077,54.887,158.383z"/>
	<path d="M62.456,167.427l4.006-1.395c0.497-0.173,0.76-0.718,0.586-1.216c-0.173-0.496-0.718-0.758-1.214-0.585l-4.006,1.397
		c-0.499,0.173-0.761,0.717-0.588,1.214c0.138,0.393,0.506,0.64,0.901,0.64C62.245,167.481,62.351,167.463,62.456,167.427z"/>
	<path d="M66.778,177.95l-4.076-1.184c-0.506-0.146-1.035,0.145-1.182,0.651c-0.146,0.507,0.146,1.035,0.651,1.18l4.076,1.184
		c0.088,0.025,0.178,0.038,0.266,0.038c0.413,0,0.793-0.271,0.915-0.688C67.576,178.626,67.284,178.097,66.778,177.95z"/>
	<path d="M32.614,158.157c0.186,0.262,0.478,0.402,0.777,0.402c0.191,0,0.384-0.058,0.551-0.176c0.43-0.306,0.53-0.901,0.225-1.33
		l-2.458-3.459c-0.305-0.429-0.9-0.53-1.329-0.225c-0.43,0.304-0.53,0.9-0.225,1.33L32.614,158.157z"/>
	<path d="M27.002,165.627l-4.006-1.397c-0.498-0.173-1.041,0.089-1.214,0.585c-0.173,0.498,0.089,1.042,0.587,1.216l4.006,1.395
		c0.104,0.037,0.209,0.055,0.314,0.055c0.395,0,0.764-0.247,0.901-0.64C27.763,166.345,27.501,165.8,27.002,165.627z"/>
	<path d="M26.128,176.766l-4.075,1.184c-0.506,0.146-0.798,0.676-0.65,1.18c0.12,0.417,0.502,0.688,0.915,0.688
		c0.088,0,0.178-0.013,0.267-0.038l4.075-1.184c0.506-0.146,0.797-0.675,0.65-1.18C27.161,176.911,26.634,176.621,26.128,176.766z"
		/>
</g>
<g id="lightOff">
	<g>
		<circle fill="#F1F1F1" cx="308.291" cy="78.796" r="61.129"/>
		<circle fill="#99CC00" cx="307.797" cy="77.9" r="35.151"/>
		<g id="lightIcon">
			<path d="M307.658,50.729c-11.552,0-20.951,9.398-20.951,20.95v0.317c-0.001,5.829-0.003,9.681,5.998,19.865
				c0.677,1.148,0.688,1.167,1.236,2.011c0.519,0.8,1.597,2.461,4.395,6.872c0.489,0.771,1.512,1.001,2.284,0.511
				c0.771-0.488,1-1.51,0.51-2.282c-2.806-4.426-3.892-6.097-4.414-6.902c-0.515-0.791-0.515-0.791-1.161-1.887
				c-5.543-9.407-5.542-12.712-5.539-18.185V71.68c0-9.729,7.913-17.643,17.642-17.643s17.645,7.915,17.645,17.643v0.318
				c0.002,5.473,0.003,8.778-5.54,18.185c-0.646,1.097-0.646,1.097-1.16,1.887c-0.522,0.805-1.608,2.477-4.415,6.902
				c-0.489,0.771-0.261,1.792,0.512,2.282c0.275,0.176,0.582,0.257,0.884,0.257c0.547,0,1.083-0.27,1.398-0.767
				c2.796-4.41,3.875-6.072,4.396-6.872c0.548-0.845,0.561-0.864,1.236-2.011c6.001-10.185,6-14.036,5.998-19.866v-0.316
				C328.609,60.126,319.211,50.729,307.658,50.729z"/>
			<path d="M316.223,103.281h-16.632c-0.914,0-1.653,0.739-1.653,1.654c0,0.913,0.74,1.653,1.653,1.653h16.632
				c0.913,0,1.653-0.741,1.653-1.653C317.876,104.021,317.135,103.281,316.223,103.281z"/>
			<path d="M315.147,108.028h-14.479c-0.913,0-1.654,0.74-1.654,1.654s0.741,1.654,1.654,1.654h14.479
				c0.913,0,1.654-0.74,1.654-1.654S316.06,108.028,315.147,108.028z"/>
			<path d="M313.591,112.776h-11.368c-0.915,0-1.654,0.74-1.654,1.653c0,0.915,0.739,1.654,1.654,1.654h11.368
				c0.915,0,1.654-0.74,1.654-1.654C315.245,113.516,314.506,112.776,313.591,112.776z"/>
			<path d="M307.951,120.74c2.083,0,3.859-1.296,4.576-3.124h-9.149C304.094,119.444,305.87,120.74,307.951,120.74z"/>
			<path d="M298.598,76.678c-0.19-0.237-0.537-0.277-0.775-0.088c-0.237,0.19-0.276,0.538-0.088,0.775
				c0.098,0.123,0.21,0.24,0.33,0.356l5.881,17.943c0.076,0.233,0.292,0.38,0.524,0.38c0.057,0,0.115-0.009,0.172-0.028
				c0.29-0.095,0.447-0.404,0.353-0.696l-5.434-16.579c1.319,0.644,2.968,0.938,4.314,0.51c0.292-0.093,0.556-0.215,0.794-0.367
				c0.657,0.431,1.463,0.687,2.317,0.687c1.009,0,1.963-0.323,2.686-0.901c0.404,0.217,0.873,0.396,1.395,0.527
				c1.543,0.39,2.906,0.295,4.042-0.259l-5.371,16.382c-0.094,0.29,0.063,0.602,0.352,0.696c0.058,0.02,0.116,0.028,0.173,0.028
				c0.232,0,0.447-0.148,0.524-0.38l5.891-17.973c0.048-0.058,0.105-0.106,0.153-0.168c0.187-0.239,0.145-0.586-0.094-0.774
				c-0.241-0.187-0.586-0.146-0.773,0.094c-1.066,1.361-2.622,1.794-4.625,1.287c-0.227-0.058-0.555-0.156-0.893-0.311
				c0.332-0.521,0.496-1.115,0.471-1.715c-0.049-1.199-0.458-2.077-1.117-2.413c-0.388-0.198-0.815-0.173-1.172,0.065
				c-0.581,0.387-0.864,1.267-0.775,2.413c0.053,0.696,0.357,1.314,0.876,1.823c-0.901,0.563-2.258,0.623-3.227,0.104
				c0.368-0.52,0.583-1.173,0.625-1.938c0.06-1.071-0.271-1.938-0.883-2.318c-0.39-0.243-0.86-0.254-1.258-0.028
				c-0.624,0.353-0.97,1.2-0.951,2.323c0.012,0.726,0.292,1.409,0.757,1.97c-0.081,0.037-0.164,0.067-0.252,0.096
				C301.89,78.725,299.487,77.797,298.598,76.678z M309.238,74.673c0.011-0.007,0.017-0.012,0.026-0.012s0.018,0.003,0.034,0.012
				c0.161,0.083,0.475,0.495,0.515,1.477c0.016,0.371-0.087,0.738-0.294,1.07c-0.306-0.292-0.532-0.665-0.568-1.136
				C308.885,75.233,309.086,74.774,309.238,74.673z M304.53,74.771c0.02-0.013,0.039-0.02,0.06-0.02c0.02,0,0.043,0.008,0.072,0.025
				c0.156,0.098,0.409,0.485,0.362,1.319c-0.029,0.524-0.158,0.958-0.384,1.303c-0.31-0.374-0.496-0.817-0.504-1.281
				C304.123,75.238,304.378,74.856,304.53,74.771z"/>
			<path d="M307.958,46.875c0.762,0,1.378-0.617,1.378-1.378v-6.134c0-0.761-0.616-1.378-1.378-1.378
				c-0.761,0-1.377,0.617-1.377,1.378v6.134C306.58,46.259,307.197,46.875,307.958,46.875z"/>
			<path d="M322.528,51.523c0.241,0.172,0.52,0.255,0.797,0.255c0.431,0,0.856-0.202,1.124-0.58l3.553-5
				c0.44-0.622,0.293-1.482-0.326-1.923c-0.621-0.44-1.481-0.295-1.923,0.325l-3.551,5C321.76,50.222,321.907,51.083,322.528,51.523
				z"/>
			<path d="M333.468,64.598l5.791-2.017c0.719-0.252,1.099-1.038,0.848-1.757c-0.25-0.718-1.038-1.097-1.755-0.848l-5.791,2.02
				c-0.721,0.25-1.099,1.037-0.849,1.755c0.199,0.568,0.731,0.925,1.302,0.925C333.163,64.676,333.315,64.65,333.468,64.598z"/>
			<path d="M339.717,79.808l-5.892-1.709c-0.731-0.211-1.496,0.208-1.708,0.939c-0.212,0.732,0.21,1.497,0.94,1.708l5.892,1.71
				c0.127,0.036,0.257,0.055,0.384,0.055c0.598,0,1.148-0.393,1.324-0.995C340.869,80.786,340.447,80.021,339.717,79.808z"/>
			<path d="M290.333,51.199c0.269,0.377,0.692,0.58,1.125,0.58c0.276,0,0.555-0.083,0.796-0.255
				c0.622-0.441,0.766-1.302,0.325-1.922l-3.553-5c-0.44-0.62-1.301-0.765-1.92-0.325c-0.621,0.44-0.767,1.301-0.326,1.923
				L290.333,51.199z"/>
			<path d="M282.222,61.996l-5.791-2.02c-0.72-0.25-1.505,0.13-1.755,0.848c-0.25,0.719,0.129,1.505,0.848,1.757l5.792,2.017
				c0.15,0.052,0.303,0.078,0.454,0.078c0.571,0,1.103-0.357,1.302-0.925C283.321,63.033,282.942,62.246,282.222,61.996z"/>
			<path d="M280.958,78.098l-5.891,1.709c-0.731,0.212-1.152,0.978-0.939,1.708c0.174,0.602,0.726,0.995,1.322,0.995
				c0.127,0,0.257-0.019,0.386-0.055l5.891-1.71c0.731-0.211,1.152-0.977,0.94-1.708C282.452,78.307,281.689,77.887,280.958,78.098z
				"/>
		</g>
	</g>
</g>
</svg>
