<?xml version="1.0" encoding="utf-8"?>
<!-- Generator: Adobe Illustrator 16.0.0, SVG Export Plug-In . SVG Version: 6.00 Build 0)  -->
<!DOCTYPE svg PUBLIC "-//W3C//DTD SVG 1.1//EN" "http://www.w3.org/Graphics/SVG/1.1/DTD/svg11.dtd">
<svg version="1.1" id="Layer_1" xmlns="http://www.w3.org/2000/svg" xmlns:xlink="http://www.w3.org/1999/xlink" x="0px" y="0px"
	 width="201.334px" height="149.095px" viewBox="7.041 6.5 201.334 149.095" enable-background="new 7.041 6.5 201.334 149.095"
	 xml:space="preserve">
<path id="sideCircle" fill="#F1F1F1" d="M206.971,72.956c0,21.654-17.556,39.209-39.209,39.209
	c-21.656,0-39.211-17.555-39.211-39.209c0-21.656,17.555-39.211,39.211-39.211C189.415,33.745,206.971,51.3,206.971,72.956"/>
<path id="centerCircle" fill="#F1F1F1" d="M143.456,73.927c0,36.411-29.518,65.93-65.931,65.93c-36.412,0-65.93-29.52-65.93-65.93
	c0-36.414,29.518-65.932,65.93-65.932C113.938,7.995,143.456,37.513,143.456,73.927"/>
<path id="centerGreenCircle" opacity="0" fill="#99CC00" d="M114.905,72.96c0,20.938-16.975,37.911-37.913,37.911
	S39.08,93.898,39.08,72.96s16.974-37.912,37.912-37.912C97.931,35.048,114.905,52.022,114.905,72.96"/>
<polygon id="arrow" fill="#F1F1F1" points="8.583,155.595 26.276,80.005 82.893,133.123 "/>
</svg>
