<?xml version="1.0" encoding="utf-8"?>
<!-- Generator: Adobe Illustrator 16.0.0, SVG Export Plug-In . SVG Version: 6.00 Build 0)  -->
<!DOCTYPE svg PUBLIC "-//W3C//DTD SVG 1.1//EN" "http://www.w3.org/Graphics/SVG/1.1/DTD/svg11.dtd">
<svg version="1.1" id="Layer_1" xmlns="http://www.w3.org/2000/svg" xmlns:xlink="http://www.w3.org/1999/xlink" x="0px" y="0px"
	 width="411.082px" height="500px" viewBox="0 0 411.082 500" enable-background="new 0 0 411.082 500" xml:space="preserve">
<g id="devicePopup">
	<path id="whiteBackground_1_" fill="#F1F1F1" d="M404.236,67.493H142.21c-2.883-33.447-30.93-59.699-65.124-59.699
		c-36.111,0-65.385,29.273-65.385,65.385c0,35.825,28.817,64.905,64.536,65.362v95.179l-10.715,59.702l59.912-21.6h278.802V67.493
		L404.236,67.493z"/>
	<circle id="greenCircle" fill="#99CC00" cx="75.979" cy="72.3" r="37.913"/>
	<g>
		<g>
			<path d="M40.41,79.509c0-1.184,0.922-2.355,2.099-2.668l75.678-20.277c0.074-0.02,0.146-0.023,0.219-0.035l-11.617-4.123
				L30.696,71.021l9.161,5.693l-0.396,0.637l-9.246-5.748c0.179,2.291,1.475,12.703,10.335,17.559
				c-0.091-0.223-0.141-0.471-0.141-0.732L40.41,79.509L40.41,79.509z"/>
			<path d="M118.757,57.235c-0.121,0-0.246,0.018-0.375,0.053L42.703,77.565c-0.836,0.223-1.542,1.113-1.542,1.943v8.92
				c0,0.309,0.094,0.566,0.274,0.75c0.248,0.252,0.641,0.334,1.073,0.219l75.678-20.277c0.836-0.223,1.543-1.113,1.543-1.943v-8.92
				C119.729,57.636,119.347,57.235,118.757,57.235z M75.876,77.612c-1.683,0.451-3.045-0.547-3.046-2.229
				c0-1.682,1.362-3.412,3.046-3.861c1.682-0.451,3.045,0.547,3.045,2.229S77.558,77.161,75.876,77.612z M85.013,75.165
				c-1.681,0.449-3.045-0.549-3.045-2.23c0-1.68,1.363-3.41,3.045-3.859c1.682-0.453,3.046,0.547,3.046,2.229
				C88.059,72.987,86.695,74.714,85.013,75.165z M101.739,70.683c-1.684,0.451-3.047-0.549-3.047-2.229
				c0-1.682,1.363-3.412,3.047-3.863c1.684-0.451,3.047,0.547,3.047,2.23C104.786,68.503,103.423,70.231,101.739,70.683z"/>
			<polygon points="77.978,80.671 73.562,81.854 65.525,85.952 68.65,88.437 77.978,81.87 			"/>
			<polygon points="93.673,81.806 88.182,79.636 84.346,79.479 84.346,78.966 78.255,80.597 78.255,82.058 75.114,84.271 
				68.927,88.624 81.3,85.31 93.673,81.993 87.488,80.954 84.346,80.427 84.346,80.134 			"/>
		</g>
	</g>
	<rect id="blueHighlight_1_" x="126.78" y="119.419" fill="#33B5E5" width="253.052" height="72.083"/>
	<path id="hand" d="M180.558,147.714c-2.494-1.172-3.771,1.42-3.771,1.42l-6.24,10.188l-1.254-0.723l4.48-16.51
		c0,0,0.59-2.744-1.998-3.275c-2.879-0.629-3.73,1.672-3.73,1.672l-4.209,16.092l-1.402-0.385l2.049-19.283
		c0,0,0.176-3.004-2.719-3.242c-2.898-0.242-3.256,2.711-3.256,2.711l-1.965,19.285h-1.254l-1.463-17.875
		c0,0-0.662-2.912-3.193-2.912c-2.527,0-2.654,3.42-2.654,3.42l0.645,21.988l-0.645,0.705l-4.795-3.762c0,0-2.254-1.791-4.057,0.039
		c-1.629,1.652,0.227,4.172,0.227,4.172l9.465,14.584l20.932,1.246l12.127-26.122C181.876,151.148,182.827,148.83,180.558,147.714"
		/>
	<g>
		<text transform="matrix(1 0 0 1 210.8569 102.9375)" fill="#989898" font-family="'ArialMT'" font-size="24">KINECT</text>
	</g>
	<g id="voice">
		<path d="M185.991,226.187c-0.748,0-1.354,0.604-1.354,1.352c0,0.209,0.051,0.402,0.135,0.58l-0.012,0.006
			c0.84,1.787,1.314,3.775,1.314,5.876s-0.475,4.091-1.314,5.878l0.012,0.006c-0.084,0.178-0.135,0.373-0.135,0.58
			c0,0.748,0.605,1.354,1.354,1.354c0.59,0,1.086-0.379,1.271-0.904c0.969-2.105,1.518-4.445,1.518-6.912
			c0-2.469-0.549-4.806-1.518-6.912C187.077,226.564,186.581,226.187,185.991,226.187z"/>
		<path d="M192.923,223.615c-0.748,0-1.352,0.607-1.352,1.354c0,0.207,0.049,0.398,0.131,0.574l-0.008,0.004
			c1.232,2.564,1.938,5.431,1.963,8.457c-0.025,3.025-0.73,5.892-1.963,8.458l0.008,0.002c-0.082,0.174-0.131,0.367-0.131,0.572
			c0,0.748,0.604,1.354,1.352,1.354c0.57,0,1.057-0.354,1.254-0.854c1.377-2.896,2.16-6.125,2.188-9.533
			c-0.027-3.408-0.811-6.636-2.188-9.533C193.979,223.97,193.493,223.615,192.923,223.615z"/>
		<path d="M201.265,221.863c-0.014-0.039-0.033-0.076-0.051-0.113l0,0c-0.221-0.445-0.676-0.755-1.207-0.755
			c-0.748,0-1.354,0.605-1.354,1.353c0,0.197,0.045,0.383,0.119,0.551l-0.006,0.004c1.588,3.371,2.479,7.133,2.479,11.099
			c0,3.968-0.891,7.73-2.479,11.103l0.006,0.002c-0.074,0.17-0.119,0.354-0.119,0.551c0,0.748,0.605,1.354,1.354,1.354
			c0.531,0,0.986-0.311,1.207-0.756l0,0c0.018-0.037,0.037-0.074,0.051-0.113c1.721-3.693,2.686-7.805,2.686-12.138
			C203.952,229.667,202.985,225.556,201.265,221.863z"/>
		<path d="M181.778,226.884l-3.852-9.697c0,0-0.396-4.018-0.76-5.555c-1.604-6.918-9.314-13.195-17.678-13.195
			c-10.174,0-18.426,8.252-18.426,18.434c0,5.882,2.754,11.123,7.043,14.497v15.64h19.666v-5.641h2.889
			c4.012,0,7.266-3.254,7.266-7.269v-5.152h2.471c0.82,0,1.49-0.668,1.49-1.486C181.89,227.255,181.851,227.058,181.778,226.884z
			 M171.515,221.318c-1.391,0-2.52-1.129-2.52-2.521c0-1.391,1.129-2.52,2.52-2.52c1.393,0,2.521,1.129,2.521,2.52
			C174.036,220.189,172.909,221.318,171.515,221.318z"/>
	</g>
	<g>
		<text transform="matrix(1 0 0 1 223.6597 164.8525)" fill="#222222" font-family="'ArialMT'" font-size="18">Make a gesture...</text>
	</g>
	<g>
		<text transform="matrix(1 0 0 1 223.6597 237.8164)" fill="#222222" font-family="'ArialMT'" font-size="18">Say something...</text>
	</g>
	<rect id="inputBar" x="75.988" y="139.759" fill="#AA66CC" width="12" height="93.244"/>
</g>
<g id="deviceGestures">
	<path id="whiteBackground" fill="#F1F1F1" d="M268.82,488.688c0,3.45-3.225,6.247-7.201,6.247H72.612c-3.978,0-7.2-2.797-7.2-6.247
		V126.849c0-3.449,3.223-6.246,7.2-6.246h189.007c3.978,0,7.201,2.797,7.201,6.246V488.688z"/>
	<rect id="blueHighlight" x="65.412" y="225.619" fill="#33B5E5" width="203.409" height="53.408"/>
	<text transform="matrix(1 0 0 1 123.6777 156.4805)" fill="#989898" font-family="'ArialMT'" font-size="24">GES</text>
	<text transform="matrix(1 0 0 1 162.4619 156.4805)" fill="#989898" font-family="'ArialMT'" font-size="24">T</text>
	<text transform="matrix(1 0 0 1 174.293 156.4805)" fill="#989898" font-family="'ArialMT'" font-size="24">URE</text>
	<text transform="matrix(1 0 0 1 214.1812 156.4805)" fill="#989898" font-family="'ArialMT'" font-size="24">S</text>
	<g>
		<g opacity="0.3">
			<g>
				<g>
					<defs>
						<rect id="SVGID_1_" x="91.624" y="165.39" width="177.197" height="2"/>
					</defs>
					<clipPath id="SVGID_2_">
						<use xlink:href="#SVGID_1_"  overflow="visible"/>
					</clipPath>
					<rect x="91.624" y="165.39" clip-path="url(#SVGID_2_)" width="177.197" height="2"/>
				</g>
			</g>
		</g>
		<g>
			<path d="M114.79,197.361c-1.373-0.646-2.076,0.781-2.076,0.781l-3.432,5.605l-0.691-0.396l2.465-9.086c0,0,0.326-1.51-1.1-1.803
				c-1.582-0.346-2.051,0.92-2.051,0.92l-2.316,8.855l-0.771-0.211l1.127-10.611c0,0,0.096-1.654-1.496-1.785
				c-1.594-0.133-1.791,1.492-1.791,1.492l-1.082,10.611h-0.691l-0.803-9.834c0,0-0.365-1.604-1.758-1.604
				c-1.39,0-1.46,1.881-1.46,1.881l0.354,12.1l-0.354,0.389l-2.638-2.07c0,0-1.241-0.984-2.233,0.021
				c-0.895,0.91,0.125,2.297,0.125,2.297l5.209,8.023l11.515,0.686l6.674-14.373C115.515,199.25,116.038,197.975,114.79,197.361"/>
			<path fill="#231F20" d="M95.341,183.363l1.172,1.73c4.134-2.801,9.441-3.281,14.009-1.318l-4.662,2.973l2.65,0.846l5.74-3.666
				l-2.568-6.305l-2.648-0.842l2.012,4.938C105.897,179.631,99.97,180.227,95.341,183.363"/>
		</g>
		<g>
			<path d="M94.033,250.65c1.373-0.645,2.076,0.781,2.076,0.781l3.431,5.603l0.691-0.396l-2.464-9.083c0,0-0.326-1.51,1.099-1.801
				c1.582-0.348,2.053,0.918,2.053,0.918l2.314,8.854l0.773-0.213l-1.127-10.607c0,0-0.098-1.654,1.494-1.783
				c1.596-0.133,1.793,1.492,1.793,1.492l1.082,10.607h0.689l0.805-9.834c0,0,0.365-1.6,1.758-1.6c1.391,0,1.461,1.879,1.461,1.879
				l-0.355,12.097l0.355,0.392l2.637-2.07c0,0,1.24-0.985,2.232,0.021c0.896,0.908-0.125,2.296-0.125,2.296l-5.207,8.022
				l-11.518,0.687l-6.673-14.369C93.308,252.541,92.785,251.264,94.033,250.65"/>
			<path fill="#231F20" d="M113.077,238.682c-4.631-3.137-10.557-3.73-15.706-1.643l2.012-4.937l-2.648,0.842l-2.568,6.304
				l5.74,3.664l2.65-0.844l-4.662-2.973c4.568-1.963,9.875-1.482,14.008,1.318L113.077,238.682"/>
		</g>
		<g>
			<path d="M122.333,353.855c1.373-0.646,2.076,0.781,2.076,0.781l3.432,5.604l0.689-0.396l-2.465-9.087
				c0,0-0.324-1.508,1.102-1.801c1.582-0.347,2.051,0.918,2.051,0.918l2.316,8.854l0.771-0.211l-1.127-10.608
				c0,0-0.096-1.654,1.496-1.785c1.594-0.133,1.791,1.492,1.791,1.492l1.082,10.61h0.688l0.807-9.836c0,0,0.363-1.602,1.758-1.602
				c1.389,0,1.461,1.881,1.461,1.881l-0.357,12.098l0.357,0.39l2.637-2.07c0,0,1.24-0.983,2.232,0.023
				c0.895,0.907-0.125,2.295-0.125,2.295l-5.207,8.022l-11.518,0.687l-6.674-14.371
				C121.606,355.746,121.085,354.468,122.333,353.855"/>
			<path d="M112.022,356.828H98.341l3.658-3.658c0.504-0.504,0.504-1.322,0-1.826c-0.504-0.506-1.324-0.506-1.828,0l-5.864,5.863
				c-0.06,0.061-0.114,0.127-0.162,0.197c-0.019,0.029-0.031,0.061-0.05,0.09c-0.022,0.043-0.049,0.086-0.068,0.133
				c-0.016,0.037-0.023,0.076-0.036,0.115c-0.013,0.043-0.028,0.082-0.036,0.127c-0.015,0.066-0.019,0.133-0.021,0.199
				c-0.001,0.018-0.006,0.033-0.006,0.053s0.006,0.037,0.006,0.059c0.004,0.064,0.008,0.129,0.021,0.193
				c0.008,0.045,0.024,0.088,0.038,0.133c0.011,0.035,0.019,0.072,0.034,0.107c0.02,0.051,0.049,0.098,0.075,0.143
				c0.015,0.027,0.026,0.055,0.043,0.08c0.048,0.072,0.103,0.139,0.163,0.199l5.863,5.863c0.252,0.254,0.582,0.379,0.914,0.379
				s0.662-0.125,0.914-0.379c0.504-0.504,0.504-1.322,0-1.826l-3.658-3.658h13.682c0.715,0,1.293-0.58,1.293-1.293
				C113.315,357.406,112.737,356.828,112.022,356.828"/>
		</g>
		<g>
			<path d="M116.929,299.548c-1.373-0.646-2.076,0.781-2.076,0.781l-3.432,5.604l-0.691-0.396l2.465-9.086
				c0,0,0.326-1.511-1.1-1.804c-1.582-0.346-2.051,0.92-2.051,0.92l-2.316,8.855l-0.771-0.211l1.127-10.611
				c0,0,0.096-1.653-1.496-1.785c-1.596-0.133-1.791,1.492-1.791,1.492l-1.082,10.611h-0.691l-0.803-9.834
				c0,0-0.365-1.604-1.758-1.604c-1.391,0-1.461,1.881-1.461,1.881l0.354,12.1l-0.354,0.389l-2.638-2.069
				c0,0-1.24-0.984-2.232,0.021c-0.895,0.91,0.125,2.297,0.125,2.297l5.208,8.023l11.516,0.684l6.674-14.371
				C117.653,301.438,118.177,300.162,116.929,299.548"/>
			<path d="M123.802,306.604c0,0.713,0.578,1.293,1.293,1.293h13.684l-3.66,3.658c-0.504,0.504-0.504,1.319,0,1.825
				c0.252,0.254,0.584,0.379,0.914,0.379c0.332,0,0.664-0.125,0.916-0.379l5.861-5.862c0.061-0.062,0.115-0.127,0.164-0.199
				c0.018-0.027,0.027-0.053,0.043-0.08c0.025-0.045,0.055-0.092,0.074-0.144c0.016-0.034,0.023-0.071,0.035-0.106
				c0.014-0.045,0.031-0.088,0.039-0.133c0.012-0.064,0.016-0.129,0.02-0.193c0-0.021,0.006-0.039,0.006-0.059
				c0-0.021-0.004-0.035-0.006-0.054c-0.002-0.065-0.006-0.135-0.02-0.198c-0.008-0.045-0.025-0.084-0.037-0.127
				c-0.012-0.039-0.02-0.078-0.037-0.115c-0.018-0.047-0.045-0.09-0.068-0.133c-0.018-0.029-0.031-0.062-0.049-0.091
				c-0.049-0.069-0.102-0.139-0.162-0.196l-5.863-5.865c-0.506-0.504-1.324-0.504-1.83,0c-0.504,0.504-0.504,1.324,0,1.828
				l3.66,3.658h-13.684C124.38,305.311,123.802,305.889,123.802,306.604"/>
		</g>
		<path fill="#F1F1F1" d="M142.964,73.726c0,36.413-29.52,65.93-65.931,65.93c-36.413,0-65.932-29.518-65.932-65.93
			S40.62,7.794,77.033,7.794C113.444,7.794,142.964,37.313,142.964,73.726"/>
		<path fill="#99CC00" d="M114.411,72.759c0,20.938-16.972,37.913-37.912,37.913c-20.938,0-37.912-16.975-37.912-37.913
			S55.562,34.847,76.5,34.847C97.439,34.847,114.411,51.821,114.411,72.759"/>
		<path d="M114.79,142.216c-1.373-0.645-2.076,0.781-2.076,0.781l-3.434,5.607l-0.689-0.398l2.465-9.084c0,0,0.324-1.51-1.1-1.803
			c-1.584-0.346-2.053,0.92-2.053,0.92l-2.314,8.854l-0.773-0.211l1.127-10.609c0,0,0.098-1.654-1.496-1.785
			c-1.594-0.133-1.791,1.492-1.791,1.492l-1.082,10.611h-0.689l-0.805-9.836c0,0-0.365-1.602-1.756-1.602
			c-1.391,0-1.461,1.881-1.461,1.881l0.354,12.1l-0.354,0.387l-2.638-2.068c0,0-1.241-0.986-2.232,0.021
			c-0.896,0.908,0.125,2.295,0.125,2.295l5.207,8.025l11.517,0.686l6.674-14.373C115.515,144.107,116.038,142.832,114.79,142.216"/>
		<path d="M30.275,72.401c0.18,2.291,1.476,12.703,10.336,17.559c-0.092-0.223-0.142-0.471-0.142-0.734v-8.918
			c0-1.184,0.923-2.355,2.099-2.67l75.679-20.277c0.074-0.02,0.146-0.021,0.219-0.033l-11.617-4.123L30.755,71.819l9.162,5.691
			l-0.396,0.637L30.275,72.401z"/>
		<path d="M41.22,80.308v8.918c0,0.311,0.094,0.568,0.274,0.752c0.249,0.252,0.642,0.332,1.074,0.219l75.678-20.277
			c0.836-0.225,1.543-1.115,1.543-1.945v-8.918c0-0.623-0.383-1.021-0.973-1.021c-0.121,0-0.246,0.018-0.375,0.051L42.763,78.364
			C41.927,78.587,41.22,79.476,41.22,80.308 M98.753,69.251c0-1.68,1.363-3.41,3.047-3.861c1.682-0.451,3.047,0.547,3.047,2.229
			c0,1.682-1.365,3.412-3.047,3.861C100.116,71.933,98.753,70.933,98.753,69.251 M82.028,73.733c0-1.682,1.362-3.41,3.045-3.861
			c1.682-0.451,3.047,0.547,3.047,2.229c0,1.684-1.365,3.412-3.047,3.863C83.392,76.413,82.028,75.415,82.028,73.733 M72.89,76.181
			c0-1.68,1.362-3.41,3.047-3.859c1.682-0.453,3.043,0.547,3.043,2.229c0,1.68-1.361,3.41-3.043,3.861
			C74.253,78.862,72.892,77.864,72.89,76.181"/>
		<polygon points="73.623,82.653 65.585,86.751 68.71,89.235 78.039,82.669 78.039,81.47 		"/>
		<polygon points="75.173,85.069 68.987,89.423 81.36,86.106 93.733,82.792 87.548,81.753 84.407,81.224 84.407,80.933 
			93.733,82.604 88.243,80.435 84.407,80.278 84.407,79.763 78.316,81.394 78.316,82.856 		"/>
		<g>
			<path d="M170.538,408.163c-1.373-0.646-2.076,0.781-2.076,0.781l-3.432,5.604l-0.691-0.396l2.465-9.086
				c0,0,0.326-1.511-1.1-1.802c-1.582-0.347-2.053,0.918-2.053,0.918l-2.314,8.855l-0.773-0.213l1.127-10.609
				c0,0,0.098-1.653-1.494-1.783c-1.596-0.133-1.791,1.492-1.791,1.492l-1.082,10.609h-0.691l-0.803-9.835
				c0,0-0.365-1.601-1.758-1.601c-1.391,0-1.461,1.88-1.461,1.88l0.354,12.099l-0.354,0.389l-2.639-2.069
				c0,0-1.24-0.986-2.232,0.021c-0.895,0.91,0.125,2.297,0.125,2.297l5.209,8.021l11.516,0.688l6.674-14.371
				C171.263,410.054,171.786,408.776,170.538,408.163"/>
			<path d="M90.181,408.157c1.373-0.646,2.076,0.781,2.076,0.781l3.432,5.604l0.69-0.396l-2.465-9.087c0,0-0.326-1.508,1.101-1.801
				c1.582-0.345,2.051,0.918,2.051,0.918l2.316,8.855l0.771-0.211l-1.127-10.609c0,0-0.096-1.654,1.496-1.785
				c1.594-0.133,1.791,1.492,1.791,1.492l1.082,10.611h0.689l0.805-9.835c0,0,0.365-1.603,1.758-1.603
				c1.391,0,1.461,1.881,1.461,1.881l-0.355,12.098l0.355,0.389l2.637-2.07c0,0,1.24-0.983,2.232,0.023
				c0.896,0.908-0.125,2.295-0.125,2.295l-5.207,8.023l-11.516,0.686l-6.674-14.371C89.456,410.048,88.933,408.771,90.181,408.157"
				/>
			<path d="M148.925,410.185h-12.312l3.291-2.928c0.455-0.404,0.455-1.059,0-1.463c-0.455-0.402-1.191-0.402-1.646,0l-5.275,4.693
				c-0.057,0.049-0.104,0.1-0.146,0.157c-0.018,0.021-0.029,0.048-0.045,0.07c-0.021,0.035-0.045,0.07-0.062,0.107
				c-0.014,0.028-0.021,0.061-0.031,0.092c-0.014,0.035-0.027,0.066-0.035,0.102c-0.012,0.054-0.014,0.105-0.018,0.16
				c-0.002,0.015-0.006,0.027-0.006,0.041c0,0.017,0.006,0.029,0.006,0.047c0.004,0.051,0.008,0.104,0.018,0.154
				c0.008,0.037,0.023,0.07,0.035,0.105c0.012,0.028,0.018,0.059,0.031,0.088c0.02,0.041,0.045,0.075,0.068,0.112
				c0.012,0.021,0.023,0.043,0.039,0.064c0.043,0.059,0.092,0.111,0.146,0.16l5.275,4.688c0.229,0.203,0.525,0.304,0.824,0.304
				c0.297,0,0.596-0.101,0.822-0.304c0.455-0.401,0.455-1.059,0-1.461l-3.291-2.928h12.312c0.643,0,1.164-0.463,1.164-1.033
				C150.089,410.646,149.567,410.185,148.925,410.185"/>
			<path d="M112.476,411.218c0,0.57,0.521,1.033,1.164,1.033h12.312l-3.291,2.928c-0.455,0.402-0.455,1.06,0,1.461
				c0.227,0.203,0.523,0.306,0.822,0.306c0.299,0,0.596-0.103,0.822-0.306l5.277-4.688c0.055-0.049,0.104-0.103,0.146-0.16
				c0.016-0.02,0.025-0.043,0.039-0.064c0.023-0.034,0.049-0.071,0.066-0.112c0.016-0.029,0.021-0.06,0.031-0.086
				c0.012-0.037,0.027-0.07,0.035-0.107c0.012-0.051,0.016-0.102,0.02-0.154c0-0.018,0.004-0.03,0.004-0.047
				c0-0.016-0.004-0.026-0.004-0.041c-0.004-0.055-0.008-0.106-0.02-0.16c-0.008-0.034-0.021-0.067-0.033-0.102
				c-0.012-0.031-0.018-0.062-0.033-0.094c-0.016-0.035-0.041-0.07-0.061-0.105c-0.016-0.022-0.027-0.049-0.045-0.069
				c-0.043-0.06-0.09-0.111-0.146-0.158l-5.277-4.693c-0.453-0.402-1.191-0.402-1.645,0c-0.455,0.404-0.455,1.062,0,1.463
				l3.291,2.929h-12.31C112.997,410.185,112.476,410.647,112.476,411.218"/>
		</g>
		<g>
			<path d="M150.235,462.462c-1.373-0.645-2.076,0.781-2.076,0.781l-3.432,5.604l-0.691-0.396l2.467-9.086
				c0,0,0.324-1.51-1.102-1.801c-1.582-0.349-2.051,0.918-2.051,0.918l-2.316,8.854l-0.771-0.213l1.127-10.609
				c0,0,0.096-1.653-1.496-1.782c-1.594-0.134-1.791,1.491-1.791,1.491l-1.082,10.609h-0.689l-0.805-9.836c0,0-0.365-1.6-1.758-1.6
				c-1.389,0-1.461,1.879-1.461,1.879l0.355,12.1l-0.355,0.389l-2.637-2.069c0,0-1.242-0.986-2.234,0.021
				c-0.893,0.91,0.125,2.297,0.125,2.297l5.209,8.021l11.516,0.686l6.676-14.369C150.962,464.353,151.483,463.075,150.235,462.462"
				/>
			<path d="M104.905,462.456c1.373-0.646,2.076,0.781,2.076,0.781l3.432,5.604l0.691-0.396l-2.465-9.086c0,0-0.326-1.509,1.1-1.802
				c1.582-0.346,2.051,0.918,2.051,0.918l2.316,8.855l0.771-0.211l-1.127-10.609c0,0-0.096-1.653,1.496-1.785
				c1.594-0.133,1.791,1.492,1.791,1.492l1.082,10.611h0.689l0.805-9.836c0,0,0.365-1.603,1.758-1.603
				c1.391,0,1.461,1.882,1.461,1.882l-0.355,12.098l0.355,0.389l2.637-2.069c0,0,1.24-0.984,2.232,0.022
				c0.896,0.908-0.125,2.295-0.125,2.295l-5.207,8.023l-11.516,0.686l-6.674-14.371
				C104.181,464.347,103.657,463.069,104.905,462.456"/>
			<path d="M101.813,465.696H89.5l3.292-2.929c0.455-0.403,0.455-1.059,0-1.463c-0.455-0.401-1.191-0.401-1.645,0l-5.278,4.691
				c-0.056,0.051-0.103,0.102-0.146,0.16c-0.018,0.021-0.029,0.047-0.045,0.069c-0.021,0.035-0.046,0.07-0.062,0.107
				c-0.014,0.029-0.021,0.061-0.032,0.092c-0.011,0.035-0.026,0.066-0.034,0.103c-0.012,0.053-0.015,0.104-0.018,0.16
				c-0.001,0.014-0.004,0.026-0.004,0.04c0,0.017,0.004,0.029,0.004,0.048c0.004,0.051,0.008,0.104,0.018,0.153
				c0.008,0.037,0.023,0.07,0.035,0.105c0.012,0.028,0.018,0.059,0.031,0.088c0.02,0.039,0.045,0.076,0.068,0.113
				c0.014,0.021,0.023,0.043,0.039,0.063c0.043,0.06,0.092,0.111,0.146,0.16l5.277,4.689c0.227,0.202,0.522,0.303,0.822,0.303
				c0.297,0,0.596-0.101,0.822-0.303c0.455-0.404,0.455-1.06,0-1.461l-3.292-2.929h12.313c0.643,0,1.164-0.463,1.164-1.033
				C102.978,466.157,102.456,465.696,101.813,465.696"/>
			<path d="M155.39,466.726c0,0.57,0.52,1.033,1.164,1.033h12.312l-3.293,2.929c-0.455,0.401-0.455,1.059,0,1.461
				c0.229,0.202,0.525,0.305,0.822,0.305c0.299,0,0.598-0.103,0.824-0.305l5.275-4.689c0.057-0.049,0.105-0.102,0.148-0.16
				c0.014-0.021,0.023-0.043,0.037-0.063c0.023-0.035,0.051-0.072,0.068-0.113c0.014-0.029,0.02-0.059,0.031-0.086
				c0.012-0.037,0.027-0.07,0.035-0.107c0.012-0.051,0.014-0.102,0.018-0.153c0-0.019,0.006-0.031,0.006-0.047
				c0-0.017-0.004-0.027-0.006-0.041c-0.002-0.056-0.006-0.107-0.018-0.16c-0.008-0.035-0.023-0.068-0.033-0.103
				c-0.012-0.03-0.018-0.062-0.033-0.094c-0.018-0.035-0.041-0.07-0.062-0.105c-0.016-0.022-0.027-0.049-0.043-0.069
				c-0.043-0.06-0.092-0.111-0.146-0.158l-5.277-4.693c-0.455-0.401-1.191-0.401-1.646,0c-0.455,0.404-0.455,1.062,0,1.463
				l3.293,2.929h-12.312C155.909,465.692,155.39,466.155,155.39,466.726"/>
		</g>
		<polygon display="none" fill="#F1F1F1" points="8.091,155.394 25.783,79.806 82.4,132.921 		"/>
	</g>
</g>
<g id="deviceGestureActive">
	<path id="sideCircle" fill="#F1F1F1" d="M206.97,72.956c0,21.654-17.555,39.209-39.209,39.209
		c-21.656,0-39.211-17.555-39.211-39.209c0-21.656,17.555-39.211,39.211-39.211C189.415,33.745,206.97,51.3,206.97,72.956"/>
	<path id="hand_1_" d="M156.681,71.013c1.373-0.645,2.076,0.781,2.076,0.781l3.432,5.605l0.691-0.396l-2.465-9.086
		c0,0-0.326-1.508,1.1-1.801c1.582-0.346,2.051,0.918,2.051,0.918l2.316,8.855l0.773-0.211l-1.127-10.609
		c0,0-0.098-1.654,1.494-1.785c1.596-0.133,1.791,1.492,1.791,1.492l1.082,10.611h0.691l0.803-9.836c0,0,0.367-1.602,1.758-1.602
		c1.393,0,1.463,1.881,1.463,1.881l-0.355,12.098l0.355,0.389l2.637-2.07c0,0,1.24-0.984,2.23,0.023
		c0.898,0.908-0.125,2.295-0.125,2.295l-5.207,8.023l-11.516,0.686l-6.674-14.371C155.956,72.903,155.433,71.626,156.681,71.013"/>
	<path id="waveLeft" fill="#231F20" d="M175.726,59.046c-4.631-3.137-10.557-3.732-15.705-1.643l2.012-4.939l-2.648,0.844
		l-2.568,6.303l5.74,3.666l2.65-0.846l-4.662-2.973c4.568-1.963,9.875-1.48,14.008,1.318L175.726,59.046"/>
	<path id="centerCircle" fill="#F1F1F1" d="M143.456,73.927c0,36.411-29.518,65.93-65.931,65.93c-36.412,0-65.93-29.52-65.93-65.93
		c0-36.414,29.518-65.932,65.93-65.932C113.938,7.995,143.456,37.513,143.456,73.927"/>
	<path id="centerGreenCircle" fill="#99CC00" d="M114.905,72.96c0,20.938-16.975,37.911-37.913,37.911S39.08,93.898,39.08,72.96
		s16.974-37.912,37.912-37.912C97.931,35.048,114.905,52.022,114.905,72.96"/>
	<g id="kinect_1_">
		<path d="M30.769,72.603c0.179,2.291,1.475,12.703,10.334,17.559c-0.09-0.223-0.141-0.471-0.141-0.734V80.51
			c0-1.184,0.922-2.355,2.1-2.672l75.677-20.275c0.074-0.02,0.148-0.021,0.219-0.035l-11.615-4.123L31.249,72.019l9.162,5.691
			l-0.396,0.639L30.769,72.603z"/>
		<polygon points="74.115,82.854 66.078,86.952 69.203,89.437 78.531,82.87 78.531,81.669 		"/>
		<polygon points="75.667,85.271 69.48,89.624 81.853,86.308 94.226,82.993 88.041,81.954 84.9,81.425 84.9,81.134 94.226,82.806 
			88.736,80.636 84.9,80.479 84.9,79.962 78.809,81.595 78.809,83.058 		"/>
		<path d="M41.714,80.509v8.918c0,0.309,0.094,0.568,0.273,0.752c0.249,0.252,0.641,0.332,1.074,0.219l75.677-20.279
			c0.836-0.223,1.543-1.113,1.543-1.943v-8.918c0-0.623-0.383-1.021-0.973-1.021c-0.121,0-0.246,0.018-0.375,0.051L43.255,78.565
			C42.419,78.788,41.714,79.677,41.714,80.509 M99.245,69.452c0-1.68,1.363-3.41,3.047-3.861c1.684-0.451,3.049,0.547,3.049,2.229
			c0,1.682-1.365,3.412-3.049,3.861C100.608,72.134,99.245,71.134,99.245,69.452 M82.521,73.935c0-1.682,1.363-3.41,3.045-3.861
			c1.682-0.453,3.047,0.547,3.047,2.229c0,1.684-1.365,3.412-3.047,3.863C83.886,76.612,82.521,75.614,82.521,73.935 M73.384,76.382
			c0-1.682,1.361-3.41,3.045-3.859c1.683-0.453,3.045,0.547,3.045,2.229c0,1.68-1.362,3.41-3.045,3.859
			C74.747,79.063,73.384,78.065,73.384,76.382"/>
	</g>
	<polygon id="arrow" fill="#F1F1F1" points="8.583,155.595 26.276,80.005 82.893,133.123 	"/>
</g>
</svg>
