<?xml version="1.0" encoding="utf-8"?>
<!-- Generator: Adobe Illustrator 15.0.2, SVG Export Plug-In . SVG Version: 6.00 Build 0)  -->
<!DOCTYPE svg PUBLIC "-//W3C//DTD SVG 1.1//EN" "http://www.w3.org/Graphics/SVG/1.1/DTD/svg11.dtd">
<svg version="1.1" id="Calque_1" xmlns="http://www.w3.org/2000/svg" xmlns:xlink="http://www.w3.org/1999/xlink" x="0px" y="0px"
	 width="100px" height="100px" viewBox="0 0 100 100" enable-background="new 0 0 100 100" xml:space="preserve">
<g>
	<path d="M23.679,59.863H77.17c0.411,0,0.745-0.333,0.745-0.744V27.785c0-1.466-1.191-2.658-2.656-2.658H25.591
		c-1.465,0-2.657,1.192-2.657,2.658v31.333C22.934,59.53,23.268,59.863,23.679,59.863z M24.854,27.196h51.141v30.872H24.854V27.196z
		"/>
	<path d="M86.064,71.606c-0.001-0.02-0.002-0.039-0.003-0.059c-0.019-0.243-0.103-0.487-0.245-0.722
		c-0.022-0.037-0.048-0.072-0.077-0.104l-8.038-9.138c-0.094-0.105-0.211-0.175-0.336-0.215c-0.04-0.085-0.123-0.145-0.224-0.145
		h-9.14c-0.094,0-0.179,0.054-0.221,0.138c-0.044,0.085-0.034,0.185,0.021,0.26l0.25,0.335H32.446l0.25-0.335
		c0.056-0.075,0.065-0.175,0.023-0.26c-0.042-0.084-0.128-0.138-0.222-0.138h-8.86c-0.1,0-0.185,0.06-0.224,0.145
		c-0.125,0.04-0.243,0.109-0.336,0.215l-8.039,9.138c-0.029,0.031-0.054,0.066-0.077,0.104c-0.185,0.303-0.27,0.625-0.247,0.938
		l-0.002,1.869c0.028,0.996,1.765,2.318,3.046,2.318h65.261c0.92,0,1.91-0.616,2.484-1.227c0.386-0.41,0.575-0.81,0.562-1.188
		L86.064,71.606z M24.196,62.57c0.212-0.242,0.238-0.581,0.093-0.848h7.714l-0.25,0.335c-0.057,0.075-0.065,0.175-0.023,0.26
		c0.043,0.083,0.128,0.137,0.222,0.137h36.596c0.095,0,0.18-0.052,0.223-0.137c0.043-0.084,0.033-0.185-0.022-0.26l-0.25-0.335
		h7.992c-0.145,0.267-0.119,0.605,0.094,0.848l7.809,8.874c-0.043,0.049-0.066,0.114-0.061,0.183
		c0.011,0.113-0.025,0.214-0.111,0.306c-0.203,0.22-0.65,0.353-1.199,0.353l-27.796,0.001h-0.002c-0.064,0-0.127,0.026-0.174,0.073
		s-0.073,0.109-0.073,0.175c0,0.452-0.484,0.486-0.634,0.486h-7.847c-0.148,0-0.634-0.034-0.634-0.486
		c0-0.065-0.025-0.129-0.072-0.175c-0.047-0.047-0.109-0.073-0.175-0.073l0,0H17.758c-0.733,0-1.272-0.239-1.31-0.581
		c-0.009-0.083-0.06-0.148-0.127-0.186L24.196,62.57z M83.019,74.461H17.758c-0.522,0-1.373-0.633-1.557-0.943l0.002-1.247
		c0.301,0.319,0.849,0.512,1.555,0.512l27.637,0.001c0.111,0.448,0.525,0.734,1.101,0.734h7.846c0.575,0,0.99-0.286,1.101-0.734
		l27.576-0.001c0.698,0,1.25-0.18,1.556-0.503l0.001,1.227C84.415,73.813,83.564,74.461,83.019,74.461z"/>
	<polygon points="69.467,64.389 30.979,64.389 28.06,68.263 72.442,68.263 	"/>
</g>
</svg>
