<?xml version="1.0" encoding="utf-8"?>
<!-- Generator: Adobe Illustrator 15.0.2, SVG Export Plug-In . SVG Version: 6.00 Build 0)  -->
<!DOCTYPE svg PUBLIC "-//W3C//DTD SVG 1.1//EN" "http://www.w3.org/Graphics/SVG/1.1/DTD/svg11.dtd">
<svg version="1.1" id="Layer_1" xmlns="http://www.w3.org/2000/svg" xmlns:xlink="http://www.w3.org/1999/xlink" x="0px" y="0px"
	 width="140.015px" height="140.039px" viewBox="0 0 140.015 140.039" enable-background="new 0 0 140.015 140.039"
	 xml:space="preserve">
<path fill="#F1F1F1" d="M74.084,0C37.671,0,8.153,29.518,8.153,65.93c0,9.572,2.057,18.659,5.725,26.867L0,140.039l50.963-12.357
	c7.196,2.696,14.984,4.18,23.121,4.18c36.413,0,65.931-29.519,65.931-65.932C140.015,29.518,110.497,0,74.084,0z"/>
<circle fill="#99CC00" cx="73.984" cy="67.911" r="37.912"/>
<g>
	<path d="M31.385,65.713c0.179,2.291,1.475,12.703,10.335,17.559c-0.091-0.223-0.141-0.471-0.141-0.733v-8.919
		c0-1.184,0.922-2.355,2.099-2.669l75.679-20.278c0.074-0.019,0.146-0.021,0.218-0.033l-11.616-4.123L31.866,65.131l9.161,5.692
		l-0.396,0.637L31.385,65.713z"/>
	<path d="M42.331,73.619v8.919c0,0.31,0.094,0.567,0.274,0.751c0.248,0.252,0.641,0.333,1.073,0.219l75.679-20.277
		c0.836-0.225,1.542-1.114,1.542-1.944v-8.919c0-0.622-0.382-1.021-0.972-1.021c-0.121,0-0.247,0.018-0.375,0.051l-75.68,20.279
		C43.037,71.898,42.331,72.788,42.331,73.619z M99.863,62.562c0-1.68,1.363-3.41,3.046-3.861c1.684-0.451,3.047,0.547,3.047,2.23
		c0,1.681-1.363,3.41-3.047,3.86C101.226,65.244,99.863,64.244,99.863,62.562z M83.138,67.045c0-1.681,1.363-3.41,3.045-3.861
		s3.046,0.547,3.046,2.229s-1.364,3.411-3.046,3.862C84.502,69.725,83.138,68.727,83.138,67.045z M74,69.493
		c0-1.681,1.362-3.411,3.046-3.86c1.682-0.453,3.045,0.547,3.045,2.229c0,1.681-1.363,3.41-3.045,3.861
		C75.364,72.174,74.001,71.176,74,69.493z"/>
</g>
<g>
	<polygon points="74.732,75.965 66.695,80.062 69.82,82.547 79.148,75.98 79.148,74.781 	"/>
</g>
<g>
	<polygon points="76.284,78.381 70.097,82.734 82.47,79.419 94.843,76.104 88.658,75.064 85.516,74.536 85.516,74.244 
		94.843,75.916 89.352,73.746 85.516,73.59 85.516,73.075 79.425,74.706 79.425,76.168 	"/>
</g>
</svg>
