<?xml version="1.0" encoding="utf-8"?>
<!-- Generator: Adobe Illustrator 15.0.2, SVG Export Plug-In . SVG Version: 6.00 Build 0)  -->
<!DOCTYPE svg PUBLIC "-//W3C//DTD SVG 1.1//EN" "http://www.w3.org/Graphics/SVG/1.1/DTD/svg11.dtd">
<svg version="1.1" id="Layer_1" xmlns="http://www.w3.org/2000/svg" xmlns:xlink="http://www.w3.org/1999/xlink" x="0px" y="0px"
	 width="100px" height="100px" viewBox="0 -11.24 100 100" enable-background="new 0 -11.24 100 100" xml:space="preserve">
<g>
	<path d="M65.334,42.696c-0.851,0-1.539,0.688-1.539,1.539c0,0.236,0.058,0.457,0.153,0.658L63.934,44.9
		c0.955,2.032,1.496,4.294,1.496,6.685s-0.541,4.653-1.496,6.686l0.015,0.007c-0.096,0.201-0.153,0.423-0.153,0.659
		c0,0.85,0.688,1.538,1.539,1.538c0.669,0,1.233-0.431,1.444-1.027c1.104-2.395,1.729-5.055,1.729-7.861s-0.625-5.467-1.729-7.86
		C66.567,43.126,66.003,42.696,65.334,42.696z"/>
	<path d="M73.217,39.772c-0.851,0-1.538,0.69-1.538,1.538c0,0.236,0.056,0.454,0.149,0.654l-0.009,0.003
		c1.402,2.918,2.203,6.177,2.233,9.618c-0.03,3.441-0.831,6.7-2.233,9.619l0.009,0.003c-0.094,0.198-0.149,0.419-0.149,0.652
		c0,0.85,0.688,1.538,1.538,1.538c0.647,0,1.201-0.402,1.427-0.971c1.565-3.294,2.456-6.966,2.486-10.841
		c-0.03-3.876-0.921-7.547-2.486-10.841C74.418,40.176,73.864,39.772,73.217,39.772z"/>
	<path d="M82.704,37.78c-0.018-0.045-0.038-0.087-0.059-0.129l0,0c-0.252-0.507-0.769-0.859-1.374-0.859
		c-0.85,0-1.537,0.689-1.537,1.539c0,0.223,0.05,0.435,0.135,0.626l-0.007,0.004c1.805,3.834,2.819,8.112,2.819,12.624
		c0,4.514-1.015,8.79-2.819,12.625l0.007,0.004c-0.085,0.192-0.135,0.402-0.135,0.627c0,0.85,0.688,1.538,1.537,1.538
		c0.605,0,1.122-0.352,1.374-0.859l0,0c0.021-0.043,0.041-0.085,0.059-0.129c1.956-4.199,3.054-8.875,3.054-13.805
		C85.759,46.656,84.66,41.979,82.704,37.78z"/>
	<path d="M60.542,43.489l-4.38-11.026c0,0-0.451-4.568-0.864-6.317c-1.822-7.867-10.593-15.005-20.104-15.005
		c-11.57,0-20.953,9.384-20.953,20.964c0,6.688,3.132,12.647,8.01,16.484v17.789h22.364v-6.416h3.284c4.562,0,8.263-3.7,8.263-8.268
		v-5.858h2.81c0.934,0,1.696-0.759,1.696-1.689C60.669,43.912,60.626,43.688,60.542,43.489z M48.871,37.159
		c-1.582,0-2.865-1.282-2.865-2.865s1.283-2.866,2.865-2.866c1.583,0,2.866,1.283,2.866,2.866S50.455,37.159,48.871,37.159z"/>
</g>
</svg>
